%TF.GenerationSoftware,KiCad,Pcbnew,5.1.10*%
%TF.CreationDate,2021-08-10T02:55:14-04:00*%
%TF.ProjectId,KSG Display Board,4b534720-4469-4737-906c-617920426f61,rev?*%
%TF.SameCoordinates,Original*%
%TF.FileFunction,Copper,L2,Bot*%
%TF.FilePolarity,Positive*%
%FSLAX46Y46*%
G04 Gerber Fmt 4.6, Leading zero omitted, Abs format (unit mm)*
G04 Created by KiCad (PCBNEW 5.1.10) date 2021-08-10 02:55:14*
%MOMM*%
%LPD*%
G01*
G04 APERTURE LIST*
%TA.AperFunction,ComponentPad*%
%ADD10O,3.960000X1.980000*%
%TD*%
%TA.AperFunction,ComponentPad*%
%ADD11R,3.960000X1.980000*%
%TD*%
%TA.AperFunction,ComponentPad*%
%ADD12C,1.524000*%
%TD*%
%TA.AperFunction,ComponentPad*%
%ADD13C,1.440000*%
%TD*%
%TA.AperFunction,ComponentPad*%
%ADD14C,1.879600*%
%TD*%
%TA.AperFunction,ViaPad*%
%ADD15C,0.800000*%
%TD*%
%TA.AperFunction,Conductor*%
%ADD16C,0.250000*%
%TD*%
%TA.AperFunction,Conductor*%
%ADD17C,0.254000*%
%TD*%
%TA.AperFunction,Conductor*%
%ADD18C,0.100000*%
%TD*%
G04 APERTURE END LIST*
%TO.P,S1,3*%
%TO.N,5V*%
%TA.AperFunction,ComponentPad*%
G36*
G01*
X107061000Y-113919000D02*
X107061000Y-114681000D01*
G75*
G02*
X106680000Y-115062000I-381000J0D01*
G01*
X104140000Y-115062000D01*
G75*
G02*
X103759000Y-114681000I0J381000D01*
G01*
X103759000Y-113919000D01*
G75*
G02*
X104140000Y-113538000I381000J0D01*
G01*
X106680000Y-113538000D01*
G75*
G02*
X107061000Y-113919000I0J-381000D01*
G01*
G37*
%TD.AperFunction*%
%TO.P,S1,1*%
%TA.AperFunction,ComponentPad*%
G36*
G01*
X111661000Y-113919000D02*
X111661000Y-114681000D01*
G75*
G02*
X111280000Y-115062000I-381000J0D01*
G01*
X108740000Y-115062000D01*
G75*
G02*
X108359000Y-114681000I0J381000D01*
G01*
X108359000Y-113919000D01*
G75*
G02*
X108740000Y-113538000I381000J0D01*
G01*
X111280000Y-113538000D01*
G75*
G02*
X111661000Y-113919000I0J-381000D01*
G01*
G37*
%TD.AperFunction*%
%TD*%
D10*
%TO.P,J2,2*%
%TO.N,GND*%
X96520000Y-125650000D03*
D11*
%TO.P,J2,1*%
%TO.N,5V*%
X96520000Y-120650000D03*
%TD*%
D12*
%TO.P,SW1,4*%
%TO.N,Net-(SW1-Pad4)*%
X189230000Y-129540000D03*
%TO.P,SW1,3*%
%TO.N,GND*%
X181610000Y-129540000D03*
%TO.P,SW1,2*%
%TO.N,Net-(SW1-Pad2)*%
X189230000Y-124460000D03*
%TO.P,SW1,1*%
%TO.N,Net-(R3-Pad2)*%
X181610000Y-124460000D03*
%TD*%
D13*
%TO.P,VR1,1*%
%TO.N,5V*%
X168910000Y-124460000D03*
%TO.P,VR1,2*%
%TO.N,Net-(J1-Pad8)*%
X166370000Y-127000000D03*
%TO.P,VR1,3*%
%TO.N,GND*%
X168910000Y-129540000D03*
%TD*%
D14*
%TO.P,J1,9*%
%TO.N,Net-(J1-Pad9)*%
X151130000Y-114300000D03*
%TO.P,J1,8*%
%TO.N,Net-(J1-Pad8)*%
X148590000Y-114300000D03*
%TO.P,J1,7*%
%TO.N,Net-(J1-Pad7)*%
X146050000Y-114300000D03*
%TO.P,J1,6*%
%TO.N,Net-(J1-Pad6)*%
X143510000Y-114300000D03*
%TO.P,J1,5*%
%TO.N,Net-(J1-Pad5)*%
X140970000Y-114300000D03*
%TO.P,J1,4*%
%TO.N,Net-(J1-Pad4)*%
X138430000Y-114300000D03*
%TO.P,J1,3*%
%TO.N,Net-(J1-Pad3)*%
X135890000Y-114300000D03*
%TO.P,J1,2*%
%TO.N,Net-(J1-Pad2)*%
X133350000Y-114300000D03*
%TO.P,J1,1*%
%TO.N,Net-(J1-Pad1)*%
X130810000Y-114300000D03*
%TD*%
D15*
%TO.N,5V*%
X158830000Y-122000000D03*
X151210000Y-122000000D03*
X143590000Y-122000000D03*
X135970000Y-122000000D03*
X128350000Y-122000000D03*
X165100000Y-120650000D03*
X116707500Y-122052500D03*
%TO.N,GND*%
X121790460Y-138559540D03*
X163700460Y-138559540D03*
X114432500Y-126867500D03*
X106812500Y-126867500D03*
%TD*%
D16*
%TO.N,5V*%
X158830000Y-122000000D02*
X157480000Y-120650000D01*
X127000000Y-120650000D02*
X128350000Y-122000000D01*
X135970000Y-122000000D02*
X134620000Y-120650000D01*
X134620000Y-120650000D02*
X127000000Y-120650000D01*
X157480000Y-120650000D02*
X134620000Y-120650000D01*
X143590000Y-122000000D02*
X142240000Y-120650000D01*
X151210000Y-122000000D02*
X149860000Y-120650000D01*
X157480000Y-120650000D02*
X165100000Y-120650000D01*
X116707500Y-122052500D02*
X115570000Y-120915000D01*
X110010000Y-114300000D02*
X110010000Y-115355000D01*
X127000000Y-120650000D02*
X115305000Y-120650000D01*
X114167500Y-119512500D02*
X115570000Y-120915000D01*
X115305000Y-120650000D02*
X114167500Y-119512500D01*
X110010000Y-115355000D02*
X114167500Y-119512500D01*
%TD*%
D17*
%TO.N,GND*%
X127761840Y-112220576D02*
X127783289Y-112246711D01*
X127887593Y-112332312D01*
X128006594Y-112395919D01*
X128096547Y-112423206D01*
X128128203Y-112432809D01*
X128180197Y-112484803D01*
X128199443Y-112500597D01*
X128221399Y-112512333D01*
X128245224Y-112519560D01*
X128270000Y-112522000D01*
X181403264Y-112522000D01*
X191008000Y-122126736D01*
X191008000Y-131873264D01*
X189023264Y-133858000D01*
X179070000Y-133858000D01*
X179045224Y-133860440D01*
X179021399Y-133867667D01*
X178999443Y-133879403D01*
X178980197Y-133895197D01*
X178928203Y-133947191D01*
X178896547Y-133956794D01*
X178806594Y-133984081D01*
X178687593Y-134047688D01*
X178651237Y-134077525D01*
X178609423Y-134111840D01*
X178609417Y-134111846D01*
X178583289Y-134133289D01*
X178561846Y-134159417D01*
X172513264Y-140208000D01*
X96726736Y-140208000D01*
X92256050Y-135737314D01*
X96332905Y-135737314D01*
X96332905Y-136262686D01*
X96435400Y-136777963D01*
X96636451Y-137263343D01*
X96928332Y-137700174D01*
X97299826Y-138071668D01*
X97736657Y-138363549D01*
X98222037Y-138564600D01*
X98737314Y-138667095D01*
X99262686Y-138667095D01*
X99777963Y-138564600D01*
X100263343Y-138363549D01*
X100700174Y-138071668D01*
X101071668Y-137700174D01*
X101363549Y-137263343D01*
X101564600Y-136777963D01*
X101572685Y-136737314D01*
X167332905Y-136737314D01*
X167332905Y-137262686D01*
X167435400Y-137777963D01*
X167636451Y-138263343D01*
X167928332Y-138700174D01*
X168299826Y-139071668D01*
X168736657Y-139363549D01*
X169222037Y-139564600D01*
X169737314Y-139667095D01*
X170262686Y-139667095D01*
X170777963Y-139564600D01*
X171263343Y-139363549D01*
X171700174Y-139071668D01*
X172071668Y-138700174D01*
X172363549Y-138263343D01*
X172564600Y-137777963D01*
X172667095Y-137262686D01*
X172667095Y-136737314D01*
X172564600Y-136222037D01*
X172363549Y-135736657D01*
X172071668Y-135299826D01*
X171700174Y-134928332D01*
X171263343Y-134636451D01*
X170777963Y-134435400D01*
X170262686Y-134332905D01*
X169737314Y-134332905D01*
X169222037Y-134435400D01*
X168736657Y-134636451D01*
X168299826Y-134928332D01*
X167928332Y-135299826D01*
X167636451Y-135736657D01*
X167435400Y-136222037D01*
X167332905Y-136737314D01*
X101572685Y-136737314D01*
X101667095Y-136262686D01*
X101667095Y-135737314D01*
X101564600Y-135222037D01*
X101363549Y-134736657D01*
X101071668Y-134299826D01*
X100700174Y-133928332D01*
X100263343Y-133636451D01*
X99777963Y-133435400D01*
X99262686Y-133332905D01*
X98737314Y-133332905D01*
X98222037Y-133435400D01*
X97736657Y-133636451D01*
X97299826Y-133928332D01*
X96928332Y-134299826D01*
X96636451Y-134736657D01*
X96435400Y-135222037D01*
X96332905Y-135737314D01*
X92256050Y-135737314D01*
X88392000Y-131873264D01*
X88392000Y-130475560D01*
X168154045Y-130475560D01*
X168215932Y-130711368D01*
X168457790Y-130824266D01*
X168717027Y-130887811D01*
X168983680Y-130899561D01*
X169247501Y-130859063D01*
X169498353Y-130767875D01*
X169604068Y-130711368D01*
X169658080Y-130505565D01*
X180824040Y-130505565D01*
X180891020Y-130745656D01*
X181140048Y-130862756D01*
X181407135Y-130929023D01*
X181682017Y-130941910D01*
X181954133Y-130900922D01*
X182213023Y-130807636D01*
X182328980Y-130745656D01*
X182395960Y-130505565D01*
X181610000Y-129719605D01*
X180824040Y-130505565D01*
X169658080Y-130505565D01*
X169665955Y-130475560D01*
X168910000Y-129719605D01*
X168154045Y-130475560D01*
X88392000Y-130475560D01*
X88392000Y-129613680D01*
X167550439Y-129613680D01*
X167590937Y-129877501D01*
X167682125Y-130128353D01*
X167738632Y-130234068D01*
X167974440Y-130295955D01*
X168730395Y-129540000D01*
X169089605Y-129540000D01*
X169845560Y-130295955D01*
X170081368Y-130234068D01*
X170194266Y-129992210D01*
X170257811Y-129732973D01*
X170263140Y-129612017D01*
X180208090Y-129612017D01*
X180249078Y-129884133D01*
X180342364Y-130143023D01*
X180404344Y-130258980D01*
X180644435Y-130325960D01*
X181430395Y-129540000D01*
X181789605Y-129540000D01*
X182575565Y-130325960D01*
X182815656Y-130258980D01*
X182932756Y-130009952D01*
X182999023Y-129742865D01*
X183011910Y-129467983D01*
X183002033Y-129402408D01*
X187833000Y-129402408D01*
X187833000Y-129677592D01*
X187886686Y-129947490D01*
X187991995Y-130201727D01*
X188144880Y-130430535D01*
X188339465Y-130625120D01*
X188568273Y-130778005D01*
X188822510Y-130883314D01*
X189092408Y-130937000D01*
X189367592Y-130937000D01*
X189637490Y-130883314D01*
X189891727Y-130778005D01*
X190120535Y-130625120D01*
X190315120Y-130430535D01*
X190468005Y-130201727D01*
X190573314Y-129947490D01*
X190627000Y-129677592D01*
X190627000Y-129402408D01*
X190573314Y-129132510D01*
X190468005Y-128878273D01*
X190315120Y-128649465D01*
X190120535Y-128454880D01*
X189891727Y-128301995D01*
X189637490Y-128196686D01*
X189367592Y-128143000D01*
X189092408Y-128143000D01*
X188822510Y-128196686D01*
X188568273Y-128301995D01*
X188339465Y-128454880D01*
X188144880Y-128649465D01*
X187991995Y-128878273D01*
X187886686Y-129132510D01*
X187833000Y-129402408D01*
X183002033Y-129402408D01*
X182970922Y-129195867D01*
X182877636Y-128936977D01*
X182815656Y-128821020D01*
X182575565Y-128754040D01*
X181789605Y-129540000D01*
X181430395Y-129540000D01*
X180644435Y-128754040D01*
X180404344Y-128821020D01*
X180287244Y-129070048D01*
X180220977Y-129337135D01*
X180208090Y-129612017D01*
X170263140Y-129612017D01*
X170269561Y-129466320D01*
X170229063Y-129202499D01*
X170137875Y-128951647D01*
X170081368Y-128845932D01*
X169845560Y-128784045D01*
X169089605Y-129540000D01*
X168730395Y-129540000D01*
X167974440Y-128784045D01*
X167738632Y-128845932D01*
X167625734Y-129087790D01*
X167562189Y-129347027D01*
X167550439Y-129613680D01*
X88392000Y-129613680D01*
X88392000Y-128604440D01*
X168154045Y-128604440D01*
X168910000Y-129360395D01*
X169665955Y-128604440D01*
X169658081Y-128574435D01*
X180824040Y-128574435D01*
X181610000Y-129360395D01*
X182395960Y-128574435D01*
X182328980Y-128334344D01*
X182079952Y-128217244D01*
X181812865Y-128150977D01*
X181537983Y-128138090D01*
X181265867Y-128179078D01*
X181006977Y-128272364D01*
X180891020Y-128334344D01*
X180824040Y-128574435D01*
X169658081Y-128574435D01*
X169604068Y-128368632D01*
X169362210Y-128255734D01*
X169102973Y-128192189D01*
X168836320Y-128180439D01*
X168572499Y-128220937D01*
X168321647Y-128312125D01*
X168215932Y-128368632D01*
X168154045Y-128604440D01*
X88392000Y-128604440D01*
X88392000Y-126028865D01*
X93949782Y-126028865D01*
X93980095Y-126154528D01*
X94108304Y-126447205D01*
X94291148Y-126709246D01*
X94521601Y-126930581D01*
X94790806Y-127102704D01*
X95088418Y-127219000D01*
X95403000Y-127275000D01*
X96393000Y-127275000D01*
X96393000Y-125777000D01*
X96647000Y-125777000D01*
X96647000Y-127275000D01*
X97637000Y-127275000D01*
X97951582Y-127219000D01*
X98249194Y-127102704D01*
X98518399Y-126930581D01*
X98585074Y-126866544D01*
X165015000Y-126866544D01*
X165015000Y-127133456D01*
X165067072Y-127395239D01*
X165169215Y-127641833D01*
X165317503Y-127863762D01*
X165506238Y-128052497D01*
X165728167Y-128200785D01*
X165974761Y-128302928D01*
X166236544Y-128355000D01*
X166503456Y-128355000D01*
X166765239Y-128302928D01*
X167011833Y-128200785D01*
X167233762Y-128052497D01*
X167422497Y-127863762D01*
X167570785Y-127641833D01*
X167672928Y-127395239D01*
X167725000Y-127133456D01*
X167725000Y-126866544D01*
X167672928Y-126604761D01*
X167570785Y-126358167D01*
X167422497Y-126136238D01*
X167233762Y-125947503D01*
X167011833Y-125799215D01*
X166765239Y-125697072D01*
X166503456Y-125645000D01*
X166236544Y-125645000D01*
X165974761Y-125697072D01*
X165728167Y-125799215D01*
X165506238Y-125947503D01*
X165317503Y-126136238D01*
X165169215Y-126358167D01*
X165067072Y-126604761D01*
X165015000Y-126866544D01*
X98585074Y-126866544D01*
X98748852Y-126709246D01*
X98931696Y-126447205D01*
X99059905Y-126154528D01*
X99090218Y-126028865D01*
X98970740Y-125777000D01*
X96647000Y-125777000D01*
X96393000Y-125777000D01*
X94069260Y-125777000D01*
X93949782Y-126028865D01*
X88392000Y-126028865D01*
X88392000Y-125271135D01*
X93949782Y-125271135D01*
X94069260Y-125523000D01*
X96393000Y-125523000D01*
X96393000Y-124025000D01*
X96647000Y-124025000D01*
X96647000Y-125523000D01*
X98970740Y-125523000D01*
X99090218Y-125271135D01*
X99059905Y-125145472D01*
X98931696Y-124852795D01*
X98748852Y-124590754D01*
X98518399Y-124369419D01*
X98451342Y-124326544D01*
X167555000Y-124326544D01*
X167555000Y-124593456D01*
X167607072Y-124855239D01*
X167709215Y-125101833D01*
X167857503Y-125323762D01*
X168046238Y-125512497D01*
X168268167Y-125660785D01*
X168514761Y-125762928D01*
X168776544Y-125815000D01*
X169043456Y-125815000D01*
X169305239Y-125762928D01*
X169551833Y-125660785D01*
X169773762Y-125512497D01*
X169962497Y-125323762D01*
X170110785Y-125101833D01*
X170212928Y-124855239D01*
X170265000Y-124593456D01*
X170265000Y-124326544D01*
X170264178Y-124322408D01*
X180213000Y-124322408D01*
X180213000Y-124597592D01*
X180266686Y-124867490D01*
X180371995Y-125121727D01*
X180524880Y-125350535D01*
X180719465Y-125545120D01*
X180948273Y-125698005D01*
X181202510Y-125803314D01*
X181472408Y-125857000D01*
X181747592Y-125857000D01*
X182017490Y-125803314D01*
X182271727Y-125698005D01*
X182500535Y-125545120D01*
X182695120Y-125350535D01*
X182848005Y-125121727D01*
X182953314Y-124867490D01*
X183007000Y-124597592D01*
X183007000Y-124322408D01*
X187833000Y-124322408D01*
X187833000Y-124597592D01*
X187886686Y-124867490D01*
X187991995Y-125121727D01*
X188144880Y-125350535D01*
X188339465Y-125545120D01*
X188568273Y-125698005D01*
X188822510Y-125803314D01*
X189092408Y-125857000D01*
X189367592Y-125857000D01*
X189637490Y-125803314D01*
X189891727Y-125698005D01*
X190120535Y-125545120D01*
X190315120Y-125350535D01*
X190468005Y-125121727D01*
X190573314Y-124867490D01*
X190627000Y-124597592D01*
X190627000Y-124322408D01*
X190573314Y-124052510D01*
X190468005Y-123798273D01*
X190315120Y-123569465D01*
X190120535Y-123374880D01*
X189891727Y-123221995D01*
X189637490Y-123116686D01*
X189367592Y-123063000D01*
X189092408Y-123063000D01*
X188822510Y-123116686D01*
X188568273Y-123221995D01*
X188339465Y-123374880D01*
X188144880Y-123569465D01*
X187991995Y-123798273D01*
X187886686Y-124052510D01*
X187833000Y-124322408D01*
X183007000Y-124322408D01*
X182953314Y-124052510D01*
X182848005Y-123798273D01*
X182695120Y-123569465D01*
X182500535Y-123374880D01*
X182271727Y-123221995D01*
X182017490Y-123116686D01*
X181747592Y-123063000D01*
X181472408Y-123063000D01*
X181202510Y-123116686D01*
X180948273Y-123221995D01*
X180719465Y-123374880D01*
X180524880Y-123569465D01*
X180371995Y-123798273D01*
X180266686Y-124052510D01*
X180213000Y-124322408D01*
X170264178Y-124322408D01*
X170212928Y-124064761D01*
X170110785Y-123818167D01*
X169962497Y-123596238D01*
X169773762Y-123407503D01*
X169551833Y-123259215D01*
X169305239Y-123157072D01*
X169043456Y-123105000D01*
X168776544Y-123105000D01*
X168514761Y-123157072D01*
X168268167Y-123259215D01*
X168046238Y-123407503D01*
X167857503Y-123596238D01*
X167709215Y-123818167D01*
X167607072Y-124064761D01*
X167555000Y-124326544D01*
X98451342Y-124326544D01*
X98249194Y-124197296D01*
X97951582Y-124081000D01*
X97637000Y-124025000D01*
X96647000Y-124025000D01*
X96393000Y-124025000D01*
X95403000Y-124025000D01*
X95088418Y-124081000D01*
X94790806Y-124197296D01*
X94521601Y-124369419D01*
X94291148Y-124590754D01*
X94108304Y-124852795D01*
X93980095Y-125145472D01*
X93949782Y-125271135D01*
X88392000Y-125271135D01*
X88392000Y-119660000D01*
X93901928Y-119660000D01*
X93901928Y-121640000D01*
X93914188Y-121764482D01*
X93950498Y-121884180D01*
X94009463Y-121994494D01*
X94088815Y-122091185D01*
X94185506Y-122170537D01*
X94295820Y-122229502D01*
X94415518Y-122265812D01*
X94540000Y-122278072D01*
X98500000Y-122278072D01*
X98624482Y-122265812D01*
X98744180Y-122229502D01*
X98854494Y-122170537D01*
X98951185Y-122091185D01*
X99030537Y-121994494D01*
X99089502Y-121884180D01*
X99125812Y-121764482D01*
X99138072Y-121640000D01*
X99138072Y-119660000D01*
X99125812Y-119535518D01*
X99089502Y-119415820D01*
X99030537Y-119305506D01*
X98951185Y-119208815D01*
X98854494Y-119129463D01*
X98744180Y-119070498D01*
X98624482Y-119034188D01*
X98500000Y-119021928D01*
X94540000Y-119021928D01*
X94415518Y-119034188D01*
X94295820Y-119070498D01*
X94185506Y-119129463D01*
X94088815Y-119208815D01*
X94009463Y-119305506D01*
X93950498Y-119415820D01*
X93914188Y-119535518D01*
X93901928Y-119660000D01*
X88392000Y-119660000D01*
X88392000Y-116871382D01*
X89945885Y-113919000D01*
X103120928Y-113919000D01*
X103120928Y-114681000D01*
X103140509Y-114879811D01*
X103198500Y-115070982D01*
X103292673Y-115247166D01*
X103419407Y-115401593D01*
X103573834Y-115528327D01*
X103750018Y-115622500D01*
X103941189Y-115680491D01*
X104140000Y-115700072D01*
X106680000Y-115700072D01*
X106878811Y-115680491D01*
X107069982Y-115622500D01*
X107246166Y-115528327D01*
X107400593Y-115401593D01*
X107527327Y-115247166D01*
X107621500Y-115070982D01*
X107679491Y-114879811D01*
X107699072Y-114681000D01*
X107699072Y-113919000D01*
X107720928Y-113919000D01*
X107720928Y-114681000D01*
X107740509Y-114879811D01*
X107798500Y-115070982D01*
X107892673Y-115247166D01*
X108019407Y-115401593D01*
X108173834Y-115528327D01*
X108350018Y-115622500D01*
X108541189Y-115680491D01*
X108740000Y-115700072D01*
X109332690Y-115700072D01*
X109375026Y-115779276D01*
X109446201Y-115866002D01*
X109470000Y-115895001D01*
X109498998Y-115918799D01*
X113656497Y-120076299D01*
X113656502Y-120076303D01*
X114230199Y-120650000D01*
X114741200Y-121161002D01*
X114764999Y-121190001D01*
X114793997Y-121213799D01*
X115058997Y-121478799D01*
X115059002Y-121478803D01*
X115672500Y-122092302D01*
X115672500Y-122154439D01*
X115712274Y-122354398D01*
X115790295Y-122542756D01*
X115903563Y-122712274D01*
X116047726Y-122856437D01*
X116217244Y-122969705D01*
X116405602Y-123047726D01*
X116605561Y-123087500D01*
X116809439Y-123087500D01*
X117009398Y-123047726D01*
X117197756Y-122969705D01*
X117367274Y-122856437D01*
X117511437Y-122712274D01*
X117624705Y-122542756D01*
X117702726Y-122354398D01*
X117742500Y-122154439D01*
X117742500Y-121950561D01*
X117702726Y-121750602D01*
X117624705Y-121562244D01*
X117522979Y-121410000D01*
X126685199Y-121410000D01*
X127315000Y-122039802D01*
X127315000Y-122101939D01*
X127354774Y-122301898D01*
X127432795Y-122490256D01*
X127546063Y-122659774D01*
X127690226Y-122803937D01*
X127859744Y-122917205D01*
X128048102Y-122995226D01*
X128248061Y-123035000D01*
X128451939Y-123035000D01*
X128651898Y-122995226D01*
X128840256Y-122917205D01*
X129009774Y-122803937D01*
X129153937Y-122659774D01*
X129267205Y-122490256D01*
X129345226Y-122301898D01*
X129385000Y-122101939D01*
X129385000Y-121898061D01*
X129345226Y-121698102D01*
X129267205Y-121509744D01*
X129200558Y-121410000D01*
X134305199Y-121410000D01*
X134935000Y-122039802D01*
X134935000Y-122101939D01*
X134974774Y-122301898D01*
X135052795Y-122490256D01*
X135166063Y-122659774D01*
X135310226Y-122803937D01*
X135479744Y-122917205D01*
X135668102Y-122995226D01*
X135868061Y-123035000D01*
X136071939Y-123035000D01*
X136271898Y-122995226D01*
X136460256Y-122917205D01*
X136629774Y-122803937D01*
X136773937Y-122659774D01*
X136887205Y-122490256D01*
X136965226Y-122301898D01*
X137005000Y-122101939D01*
X137005000Y-121898061D01*
X136965226Y-121698102D01*
X136887205Y-121509744D01*
X136820558Y-121410000D01*
X141925199Y-121410000D01*
X142555000Y-122039802D01*
X142555000Y-122101939D01*
X142594774Y-122301898D01*
X142672795Y-122490256D01*
X142786063Y-122659774D01*
X142930226Y-122803937D01*
X143099744Y-122917205D01*
X143288102Y-122995226D01*
X143488061Y-123035000D01*
X143691939Y-123035000D01*
X143891898Y-122995226D01*
X144080256Y-122917205D01*
X144249774Y-122803937D01*
X144393937Y-122659774D01*
X144507205Y-122490256D01*
X144585226Y-122301898D01*
X144625000Y-122101939D01*
X144625000Y-121898061D01*
X144585226Y-121698102D01*
X144507205Y-121509744D01*
X144440558Y-121410000D01*
X149545199Y-121410000D01*
X150175000Y-122039802D01*
X150175000Y-122101939D01*
X150214774Y-122301898D01*
X150292795Y-122490256D01*
X150406063Y-122659774D01*
X150550226Y-122803937D01*
X150719744Y-122917205D01*
X150908102Y-122995226D01*
X151108061Y-123035000D01*
X151311939Y-123035000D01*
X151511898Y-122995226D01*
X151700256Y-122917205D01*
X151869774Y-122803937D01*
X152013937Y-122659774D01*
X152127205Y-122490256D01*
X152205226Y-122301898D01*
X152245000Y-122101939D01*
X152245000Y-121898061D01*
X152205226Y-121698102D01*
X152127205Y-121509744D01*
X152060558Y-121410000D01*
X157165199Y-121410000D01*
X157795000Y-122039802D01*
X157795000Y-122101939D01*
X157834774Y-122301898D01*
X157912795Y-122490256D01*
X158026063Y-122659774D01*
X158170226Y-122803937D01*
X158339744Y-122917205D01*
X158528102Y-122995226D01*
X158728061Y-123035000D01*
X158931939Y-123035000D01*
X159131898Y-122995226D01*
X159320256Y-122917205D01*
X159489774Y-122803937D01*
X159633937Y-122659774D01*
X159747205Y-122490256D01*
X159825226Y-122301898D01*
X159865000Y-122101939D01*
X159865000Y-121898061D01*
X159825226Y-121698102D01*
X159747205Y-121509744D01*
X159680558Y-121410000D01*
X164396289Y-121410000D01*
X164440226Y-121453937D01*
X164609744Y-121567205D01*
X164798102Y-121645226D01*
X164998061Y-121685000D01*
X165201939Y-121685000D01*
X165401898Y-121645226D01*
X165590256Y-121567205D01*
X165759774Y-121453937D01*
X165903937Y-121309774D01*
X166017205Y-121140256D01*
X166095226Y-120951898D01*
X166135000Y-120751939D01*
X166135000Y-120548061D01*
X166095226Y-120348102D01*
X166017205Y-120159744D01*
X165903937Y-119990226D01*
X165759774Y-119846063D01*
X165590256Y-119732795D01*
X165401898Y-119654774D01*
X165201939Y-119615000D01*
X164998061Y-119615000D01*
X164798102Y-119654774D01*
X164609744Y-119732795D01*
X164440226Y-119846063D01*
X164396289Y-119890000D01*
X157517322Y-119890000D01*
X157480000Y-119886324D01*
X157442678Y-119890000D01*
X149897322Y-119890000D01*
X149860000Y-119886324D01*
X149822678Y-119890000D01*
X142277322Y-119890000D01*
X142240000Y-119886324D01*
X142202678Y-119890000D01*
X134657322Y-119890000D01*
X134620000Y-119886324D01*
X134582678Y-119890000D01*
X127037322Y-119890000D01*
X127000000Y-119886324D01*
X126962678Y-119890000D01*
X115619802Y-119890000D01*
X115391288Y-119661486D01*
X114731303Y-119001502D01*
X114731299Y-119001497D01*
X111416436Y-115686634D01*
X111478811Y-115680491D01*
X111669982Y-115622500D01*
X111846166Y-115528327D01*
X112000593Y-115401593D01*
X112127327Y-115247166D01*
X112221500Y-115070982D01*
X112279491Y-114879811D01*
X112299072Y-114681000D01*
X112299072Y-114144896D01*
X129235200Y-114144896D01*
X129235200Y-114455104D01*
X129295718Y-114759352D01*
X129414430Y-115045948D01*
X129586773Y-115303877D01*
X129806123Y-115523227D01*
X130064052Y-115695570D01*
X130350648Y-115814282D01*
X130654896Y-115874800D01*
X130965104Y-115874800D01*
X131269352Y-115814282D01*
X131555948Y-115695570D01*
X131813877Y-115523227D01*
X132033227Y-115303877D01*
X132080000Y-115233876D01*
X132126773Y-115303877D01*
X132346123Y-115523227D01*
X132604052Y-115695570D01*
X132890648Y-115814282D01*
X133194896Y-115874800D01*
X133505104Y-115874800D01*
X133809352Y-115814282D01*
X134095948Y-115695570D01*
X134353877Y-115523227D01*
X134573227Y-115303877D01*
X134620000Y-115233876D01*
X134666773Y-115303877D01*
X134886123Y-115523227D01*
X135144052Y-115695570D01*
X135430648Y-115814282D01*
X135734896Y-115874800D01*
X136045104Y-115874800D01*
X136349352Y-115814282D01*
X136635948Y-115695570D01*
X136893877Y-115523227D01*
X137113227Y-115303877D01*
X137160000Y-115233876D01*
X137206773Y-115303877D01*
X137426123Y-115523227D01*
X137684052Y-115695570D01*
X137970648Y-115814282D01*
X138274896Y-115874800D01*
X138585104Y-115874800D01*
X138889352Y-115814282D01*
X139175948Y-115695570D01*
X139433877Y-115523227D01*
X139653227Y-115303877D01*
X139700000Y-115233876D01*
X139746773Y-115303877D01*
X139966123Y-115523227D01*
X140224052Y-115695570D01*
X140510648Y-115814282D01*
X140814896Y-115874800D01*
X141125104Y-115874800D01*
X141429352Y-115814282D01*
X141715948Y-115695570D01*
X141973877Y-115523227D01*
X142193227Y-115303877D01*
X142240000Y-115233876D01*
X142286773Y-115303877D01*
X142506123Y-115523227D01*
X142764052Y-115695570D01*
X143050648Y-115814282D01*
X143354896Y-115874800D01*
X143665104Y-115874800D01*
X143969352Y-115814282D01*
X144255948Y-115695570D01*
X144513877Y-115523227D01*
X144733227Y-115303877D01*
X144780000Y-115233876D01*
X144826773Y-115303877D01*
X145046123Y-115523227D01*
X145304052Y-115695570D01*
X145590648Y-115814282D01*
X145894896Y-115874800D01*
X146205104Y-115874800D01*
X146509352Y-115814282D01*
X146795948Y-115695570D01*
X147053877Y-115523227D01*
X147273227Y-115303877D01*
X147320000Y-115233876D01*
X147366773Y-115303877D01*
X147586123Y-115523227D01*
X147844052Y-115695570D01*
X148130648Y-115814282D01*
X148434896Y-115874800D01*
X148745104Y-115874800D01*
X149049352Y-115814282D01*
X149335948Y-115695570D01*
X149593877Y-115523227D01*
X149813227Y-115303877D01*
X149860000Y-115233876D01*
X149906773Y-115303877D01*
X150126123Y-115523227D01*
X150384052Y-115695570D01*
X150670648Y-115814282D01*
X150974896Y-115874800D01*
X151285104Y-115874800D01*
X151589352Y-115814282D01*
X151875948Y-115695570D01*
X152133877Y-115523227D01*
X152353227Y-115303877D01*
X152525570Y-115045948D01*
X152644282Y-114759352D01*
X152704800Y-114455104D01*
X152704800Y-114144896D01*
X152644282Y-113840648D01*
X152525570Y-113554052D01*
X152353227Y-113296123D01*
X152133877Y-113076773D01*
X151875948Y-112904430D01*
X151589352Y-112785718D01*
X151285104Y-112725200D01*
X150974896Y-112725200D01*
X150670648Y-112785718D01*
X150384052Y-112904430D01*
X150126123Y-113076773D01*
X149906773Y-113296123D01*
X149860000Y-113366124D01*
X149813227Y-113296123D01*
X149593877Y-113076773D01*
X149335948Y-112904430D01*
X149049352Y-112785718D01*
X148745104Y-112725200D01*
X148434896Y-112725200D01*
X148130648Y-112785718D01*
X147844052Y-112904430D01*
X147586123Y-113076773D01*
X147366773Y-113296123D01*
X147320000Y-113366124D01*
X147273227Y-113296123D01*
X147053877Y-113076773D01*
X146795948Y-112904430D01*
X146509352Y-112785718D01*
X146205104Y-112725200D01*
X145894896Y-112725200D01*
X145590648Y-112785718D01*
X145304052Y-112904430D01*
X145046123Y-113076773D01*
X144826773Y-113296123D01*
X144780000Y-113366124D01*
X144733227Y-113296123D01*
X144513877Y-113076773D01*
X144255948Y-112904430D01*
X143969352Y-112785718D01*
X143665104Y-112725200D01*
X143354896Y-112725200D01*
X143050648Y-112785718D01*
X142764052Y-112904430D01*
X142506123Y-113076773D01*
X142286773Y-113296123D01*
X142240000Y-113366124D01*
X142193227Y-113296123D01*
X141973877Y-113076773D01*
X141715948Y-112904430D01*
X141429352Y-112785718D01*
X141125104Y-112725200D01*
X140814896Y-112725200D01*
X140510648Y-112785718D01*
X140224052Y-112904430D01*
X139966123Y-113076773D01*
X139746773Y-113296123D01*
X139700000Y-113366124D01*
X139653227Y-113296123D01*
X139433877Y-113076773D01*
X139175948Y-112904430D01*
X138889352Y-112785718D01*
X138585104Y-112725200D01*
X138274896Y-112725200D01*
X137970648Y-112785718D01*
X137684052Y-112904430D01*
X137426123Y-113076773D01*
X137206773Y-113296123D01*
X137160000Y-113366124D01*
X137113227Y-113296123D01*
X136893877Y-113076773D01*
X136635948Y-112904430D01*
X136349352Y-112785718D01*
X136045104Y-112725200D01*
X135734896Y-112725200D01*
X135430648Y-112785718D01*
X135144052Y-112904430D01*
X134886123Y-113076773D01*
X134666773Y-113296123D01*
X134620000Y-113366124D01*
X134573227Y-113296123D01*
X134353877Y-113076773D01*
X134095948Y-112904430D01*
X133809352Y-112785718D01*
X133505104Y-112725200D01*
X133194896Y-112725200D01*
X132890648Y-112785718D01*
X132604052Y-112904430D01*
X132346123Y-113076773D01*
X132126773Y-113296123D01*
X132080000Y-113366124D01*
X132033227Y-113296123D01*
X131813877Y-113076773D01*
X131555948Y-112904430D01*
X131269352Y-112785718D01*
X130965104Y-112725200D01*
X130654896Y-112725200D01*
X130350648Y-112785718D01*
X130064052Y-112904430D01*
X129806123Y-113076773D01*
X129586773Y-113296123D01*
X129414430Y-113554052D01*
X129295718Y-113840648D01*
X129235200Y-114144896D01*
X112299072Y-114144896D01*
X112299072Y-113919000D01*
X112279491Y-113720189D01*
X112221500Y-113529018D01*
X112127327Y-113352834D01*
X112000593Y-113198407D01*
X111846166Y-113071673D01*
X111669982Y-112977500D01*
X111478811Y-112919509D01*
X111280000Y-112899928D01*
X108740000Y-112899928D01*
X108541189Y-112919509D01*
X108350018Y-112977500D01*
X108173834Y-113071673D01*
X108019407Y-113198407D01*
X107892673Y-113352834D01*
X107798500Y-113529018D01*
X107740509Y-113720189D01*
X107720928Y-113919000D01*
X107699072Y-113919000D01*
X107679491Y-113720189D01*
X107621500Y-113529018D01*
X107527327Y-113352834D01*
X107400593Y-113198407D01*
X107246166Y-113071673D01*
X107069982Y-112977500D01*
X106878811Y-112919509D01*
X106680000Y-112899928D01*
X104140000Y-112899928D01*
X103941189Y-112919509D01*
X103750018Y-112977500D01*
X103573834Y-113071673D01*
X103419407Y-113198407D01*
X103292673Y-113352834D01*
X103198500Y-113529018D01*
X103140509Y-113720189D01*
X103120928Y-113919000D01*
X89945885Y-113919000D01*
X92146772Y-109737314D01*
X117982905Y-109737314D01*
X117982905Y-110262686D01*
X118085400Y-110777963D01*
X118286451Y-111263343D01*
X118578332Y-111700174D01*
X118949826Y-112071668D01*
X119386657Y-112363549D01*
X119872037Y-112564600D01*
X120387314Y-112667095D01*
X120912686Y-112667095D01*
X121427963Y-112564600D01*
X121913343Y-112363549D01*
X122350174Y-112071668D01*
X122721668Y-111700174D01*
X123013549Y-111263343D01*
X123214600Y-110777963D01*
X123317095Y-110262686D01*
X123317095Y-109737314D01*
X123214600Y-109222037D01*
X123013549Y-108736657D01*
X122721668Y-108299826D01*
X122350174Y-107928332D01*
X121913343Y-107636451D01*
X121427963Y-107435400D01*
X120912686Y-107332905D01*
X120387314Y-107332905D01*
X119872037Y-107435400D01*
X119386657Y-107636451D01*
X118949826Y-107928332D01*
X118578332Y-108299826D01*
X118286451Y-108736657D01*
X118085400Y-109222037D01*
X117982905Y-109737314D01*
X92146772Y-109737314D01*
X94691674Y-104902000D01*
X120443264Y-104902000D01*
X127761840Y-112220576D01*
%TA.AperFunction,Conductor*%
D18*
G36*
X127761840Y-112220576D02*
G01*
X127783289Y-112246711D01*
X127887593Y-112332312D01*
X128006594Y-112395919D01*
X128096547Y-112423206D01*
X128128203Y-112432809D01*
X128180197Y-112484803D01*
X128199443Y-112500597D01*
X128221399Y-112512333D01*
X128245224Y-112519560D01*
X128270000Y-112522000D01*
X181403264Y-112522000D01*
X191008000Y-122126736D01*
X191008000Y-131873264D01*
X189023264Y-133858000D01*
X179070000Y-133858000D01*
X179045224Y-133860440D01*
X179021399Y-133867667D01*
X178999443Y-133879403D01*
X178980197Y-133895197D01*
X178928203Y-133947191D01*
X178896547Y-133956794D01*
X178806594Y-133984081D01*
X178687593Y-134047688D01*
X178651237Y-134077525D01*
X178609423Y-134111840D01*
X178609417Y-134111846D01*
X178583289Y-134133289D01*
X178561846Y-134159417D01*
X172513264Y-140208000D01*
X96726736Y-140208000D01*
X92256050Y-135737314D01*
X96332905Y-135737314D01*
X96332905Y-136262686D01*
X96435400Y-136777963D01*
X96636451Y-137263343D01*
X96928332Y-137700174D01*
X97299826Y-138071668D01*
X97736657Y-138363549D01*
X98222037Y-138564600D01*
X98737314Y-138667095D01*
X99262686Y-138667095D01*
X99777963Y-138564600D01*
X100263343Y-138363549D01*
X100700174Y-138071668D01*
X101071668Y-137700174D01*
X101363549Y-137263343D01*
X101564600Y-136777963D01*
X101572685Y-136737314D01*
X167332905Y-136737314D01*
X167332905Y-137262686D01*
X167435400Y-137777963D01*
X167636451Y-138263343D01*
X167928332Y-138700174D01*
X168299826Y-139071668D01*
X168736657Y-139363549D01*
X169222037Y-139564600D01*
X169737314Y-139667095D01*
X170262686Y-139667095D01*
X170777963Y-139564600D01*
X171263343Y-139363549D01*
X171700174Y-139071668D01*
X172071668Y-138700174D01*
X172363549Y-138263343D01*
X172564600Y-137777963D01*
X172667095Y-137262686D01*
X172667095Y-136737314D01*
X172564600Y-136222037D01*
X172363549Y-135736657D01*
X172071668Y-135299826D01*
X171700174Y-134928332D01*
X171263343Y-134636451D01*
X170777963Y-134435400D01*
X170262686Y-134332905D01*
X169737314Y-134332905D01*
X169222037Y-134435400D01*
X168736657Y-134636451D01*
X168299826Y-134928332D01*
X167928332Y-135299826D01*
X167636451Y-135736657D01*
X167435400Y-136222037D01*
X167332905Y-136737314D01*
X101572685Y-136737314D01*
X101667095Y-136262686D01*
X101667095Y-135737314D01*
X101564600Y-135222037D01*
X101363549Y-134736657D01*
X101071668Y-134299826D01*
X100700174Y-133928332D01*
X100263343Y-133636451D01*
X99777963Y-133435400D01*
X99262686Y-133332905D01*
X98737314Y-133332905D01*
X98222037Y-133435400D01*
X97736657Y-133636451D01*
X97299826Y-133928332D01*
X96928332Y-134299826D01*
X96636451Y-134736657D01*
X96435400Y-135222037D01*
X96332905Y-135737314D01*
X92256050Y-135737314D01*
X88392000Y-131873264D01*
X88392000Y-130475560D01*
X168154045Y-130475560D01*
X168215932Y-130711368D01*
X168457790Y-130824266D01*
X168717027Y-130887811D01*
X168983680Y-130899561D01*
X169247501Y-130859063D01*
X169498353Y-130767875D01*
X169604068Y-130711368D01*
X169658080Y-130505565D01*
X180824040Y-130505565D01*
X180891020Y-130745656D01*
X181140048Y-130862756D01*
X181407135Y-130929023D01*
X181682017Y-130941910D01*
X181954133Y-130900922D01*
X182213023Y-130807636D01*
X182328980Y-130745656D01*
X182395960Y-130505565D01*
X181610000Y-129719605D01*
X180824040Y-130505565D01*
X169658080Y-130505565D01*
X169665955Y-130475560D01*
X168910000Y-129719605D01*
X168154045Y-130475560D01*
X88392000Y-130475560D01*
X88392000Y-129613680D01*
X167550439Y-129613680D01*
X167590937Y-129877501D01*
X167682125Y-130128353D01*
X167738632Y-130234068D01*
X167974440Y-130295955D01*
X168730395Y-129540000D01*
X169089605Y-129540000D01*
X169845560Y-130295955D01*
X170081368Y-130234068D01*
X170194266Y-129992210D01*
X170257811Y-129732973D01*
X170263140Y-129612017D01*
X180208090Y-129612017D01*
X180249078Y-129884133D01*
X180342364Y-130143023D01*
X180404344Y-130258980D01*
X180644435Y-130325960D01*
X181430395Y-129540000D01*
X181789605Y-129540000D01*
X182575565Y-130325960D01*
X182815656Y-130258980D01*
X182932756Y-130009952D01*
X182999023Y-129742865D01*
X183011910Y-129467983D01*
X183002033Y-129402408D01*
X187833000Y-129402408D01*
X187833000Y-129677592D01*
X187886686Y-129947490D01*
X187991995Y-130201727D01*
X188144880Y-130430535D01*
X188339465Y-130625120D01*
X188568273Y-130778005D01*
X188822510Y-130883314D01*
X189092408Y-130937000D01*
X189367592Y-130937000D01*
X189637490Y-130883314D01*
X189891727Y-130778005D01*
X190120535Y-130625120D01*
X190315120Y-130430535D01*
X190468005Y-130201727D01*
X190573314Y-129947490D01*
X190627000Y-129677592D01*
X190627000Y-129402408D01*
X190573314Y-129132510D01*
X190468005Y-128878273D01*
X190315120Y-128649465D01*
X190120535Y-128454880D01*
X189891727Y-128301995D01*
X189637490Y-128196686D01*
X189367592Y-128143000D01*
X189092408Y-128143000D01*
X188822510Y-128196686D01*
X188568273Y-128301995D01*
X188339465Y-128454880D01*
X188144880Y-128649465D01*
X187991995Y-128878273D01*
X187886686Y-129132510D01*
X187833000Y-129402408D01*
X183002033Y-129402408D01*
X182970922Y-129195867D01*
X182877636Y-128936977D01*
X182815656Y-128821020D01*
X182575565Y-128754040D01*
X181789605Y-129540000D01*
X181430395Y-129540000D01*
X180644435Y-128754040D01*
X180404344Y-128821020D01*
X180287244Y-129070048D01*
X180220977Y-129337135D01*
X180208090Y-129612017D01*
X170263140Y-129612017D01*
X170269561Y-129466320D01*
X170229063Y-129202499D01*
X170137875Y-128951647D01*
X170081368Y-128845932D01*
X169845560Y-128784045D01*
X169089605Y-129540000D01*
X168730395Y-129540000D01*
X167974440Y-128784045D01*
X167738632Y-128845932D01*
X167625734Y-129087790D01*
X167562189Y-129347027D01*
X167550439Y-129613680D01*
X88392000Y-129613680D01*
X88392000Y-128604440D01*
X168154045Y-128604440D01*
X168910000Y-129360395D01*
X169665955Y-128604440D01*
X169658081Y-128574435D01*
X180824040Y-128574435D01*
X181610000Y-129360395D01*
X182395960Y-128574435D01*
X182328980Y-128334344D01*
X182079952Y-128217244D01*
X181812865Y-128150977D01*
X181537983Y-128138090D01*
X181265867Y-128179078D01*
X181006977Y-128272364D01*
X180891020Y-128334344D01*
X180824040Y-128574435D01*
X169658081Y-128574435D01*
X169604068Y-128368632D01*
X169362210Y-128255734D01*
X169102973Y-128192189D01*
X168836320Y-128180439D01*
X168572499Y-128220937D01*
X168321647Y-128312125D01*
X168215932Y-128368632D01*
X168154045Y-128604440D01*
X88392000Y-128604440D01*
X88392000Y-126028865D01*
X93949782Y-126028865D01*
X93980095Y-126154528D01*
X94108304Y-126447205D01*
X94291148Y-126709246D01*
X94521601Y-126930581D01*
X94790806Y-127102704D01*
X95088418Y-127219000D01*
X95403000Y-127275000D01*
X96393000Y-127275000D01*
X96393000Y-125777000D01*
X96647000Y-125777000D01*
X96647000Y-127275000D01*
X97637000Y-127275000D01*
X97951582Y-127219000D01*
X98249194Y-127102704D01*
X98518399Y-126930581D01*
X98585074Y-126866544D01*
X165015000Y-126866544D01*
X165015000Y-127133456D01*
X165067072Y-127395239D01*
X165169215Y-127641833D01*
X165317503Y-127863762D01*
X165506238Y-128052497D01*
X165728167Y-128200785D01*
X165974761Y-128302928D01*
X166236544Y-128355000D01*
X166503456Y-128355000D01*
X166765239Y-128302928D01*
X167011833Y-128200785D01*
X167233762Y-128052497D01*
X167422497Y-127863762D01*
X167570785Y-127641833D01*
X167672928Y-127395239D01*
X167725000Y-127133456D01*
X167725000Y-126866544D01*
X167672928Y-126604761D01*
X167570785Y-126358167D01*
X167422497Y-126136238D01*
X167233762Y-125947503D01*
X167011833Y-125799215D01*
X166765239Y-125697072D01*
X166503456Y-125645000D01*
X166236544Y-125645000D01*
X165974761Y-125697072D01*
X165728167Y-125799215D01*
X165506238Y-125947503D01*
X165317503Y-126136238D01*
X165169215Y-126358167D01*
X165067072Y-126604761D01*
X165015000Y-126866544D01*
X98585074Y-126866544D01*
X98748852Y-126709246D01*
X98931696Y-126447205D01*
X99059905Y-126154528D01*
X99090218Y-126028865D01*
X98970740Y-125777000D01*
X96647000Y-125777000D01*
X96393000Y-125777000D01*
X94069260Y-125777000D01*
X93949782Y-126028865D01*
X88392000Y-126028865D01*
X88392000Y-125271135D01*
X93949782Y-125271135D01*
X94069260Y-125523000D01*
X96393000Y-125523000D01*
X96393000Y-124025000D01*
X96647000Y-124025000D01*
X96647000Y-125523000D01*
X98970740Y-125523000D01*
X99090218Y-125271135D01*
X99059905Y-125145472D01*
X98931696Y-124852795D01*
X98748852Y-124590754D01*
X98518399Y-124369419D01*
X98451342Y-124326544D01*
X167555000Y-124326544D01*
X167555000Y-124593456D01*
X167607072Y-124855239D01*
X167709215Y-125101833D01*
X167857503Y-125323762D01*
X168046238Y-125512497D01*
X168268167Y-125660785D01*
X168514761Y-125762928D01*
X168776544Y-125815000D01*
X169043456Y-125815000D01*
X169305239Y-125762928D01*
X169551833Y-125660785D01*
X169773762Y-125512497D01*
X169962497Y-125323762D01*
X170110785Y-125101833D01*
X170212928Y-124855239D01*
X170265000Y-124593456D01*
X170265000Y-124326544D01*
X170264178Y-124322408D01*
X180213000Y-124322408D01*
X180213000Y-124597592D01*
X180266686Y-124867490D01*
X180371995Y-125121727D01*
X180524880Y-125350535D01*
X180719465Y-125545120D01*
X180948273Y-125698005D01*
X181202510Y-125803314D01*
X181472408Y-125857000D01*
X181747592Y-125857000D01*
X182017490Y-125803314D01*
X182271727Y-125698005D01*
X182500535Y-125545120D01*
X182695120Y-125350535D01*
X182848005Y-125121727D01*
X182953314Y-124867490D01*
X183007000Y-124597592D01*
X183007000Y-124322408D01*
X187833000Y-124322408D01*
X187833000Y-124597592D01*
X187886686Y-124867490D01*
X187991995Y-125121727D01*
X188144880Y-125350535D01*
X188339465Y-125545120D01*
X188568273Y-125698005D01*
X188822510Y-125803314D01*
X189092408Y-125857000D01*
X189367592Y-125857000D01*
X189637490Y-125803314D01*
X189891727Y-125698005D01*
X190120535Y-125545120D01*
X190315120Y-125350535D01*
X190468005Y-125121727D01*
X190573314Y-124867490D01*
X190627000Y-124597592D01*
X190627000Y-124322408D01*
X190573314Y-124052510D01*
X190468005Y-123798273D01*
X190315120Y-123569465D01*
X190120535Y-123374880D01*
X189891727Y-123221995D01*
X189637490Y-123116686D01*
X189367592Y-123063000D01*
X189092408Y-123063000D01*
X188822510Y-123116686D01*
X188568273Y-123221995D01*
X188339465Y-123374880D01*
X188144880Y-123569465D01*
X187991995Y-123798273D01*
X187886686Y-124052510D01*
X187833000Y-124322408D01*
X183007000Y-124322408D01*
X182953314Y-124052510D01*
X182848005Y-123798273D01*
X182695120Y-123569465D01*
X182500535Y-123374880D01*
X182271727Y-123221995D01*
X182017490Y-123116686D01*
X181747592Y-123063000D01*
X181472408Y-123063000D01*
X181202510Y-123116686D01*
X180948273Y-123221995D01*
X180719465Y-123374880D01*
X180524880Y-123569465D01*
X180371995Y-123798273D01*
X180266686Y-124052510D01*
X180213000Y-124322408D01*
X170264178Y-124322408D01*
X170212928Y-124064761D01*
X170110785Y-123818167D01*
X169962497Y-123596238D01*
X169773762Y-123407503D01*
X169551833Y-123259215D01*
X169305239Y-123157072D01*
X169043456Y-123105000D01*
X168776544Y-123105000D01*
X168514761Y-123157072D01*
X168268167Y-123259215D01*
X168046238Y-123407503D01*
X167857503Y-123596238D01*
X167709215Y-123818167D01*
X167607072Y-124064761D01*
X167555000Y-124326544D01*
X98451342Y-124326544D01*
X98249194Y-124197296D01*
X97951582Y-124081000D01*
X97637000Y-124025000D01*
X96647000Y-124025000D01*
X96393000Y-124025000D01*
X95403000Y-124025000D01*
X95088418Y-124081000D01*
X94790806Y-124197296D01*
X94521601Y-124369419D01*
X94291148Y-124590754D01*
X94108304Y-124852795D01*
X93980095Y-125145472D01*
X93949782Y-125271135D01*
X88392000Y-125271135D01*
X88392000Y-119660000D01*
X93901928Y-119660000D01*
X93901928Y-121640000D01*
X93914188Y-121764482D01*
X93950498Y-121884180D01*
X94009463Y-121994494D01*
X94088815Y-122091185D01*
X94185506Y-122170537D01*
X94295820Y-122229502D01*
X94415518Y-122265812D01*
X94540000Y-122278072D01*
X98500000Y-122278072D01*
X98624482Y-122265812D01*
X98744180Y-122229502D01*
X98854494Y-122170537D01*
X98951185Y-122091185D01*
X99030537Y-121994494D01*
X99089502Y-121884180D01*
X99125812Y-121764482D01*
X99138072Y-121640000D01*
X99138072Y-119660000D01*
X99125812Y-119535518D01*
X99089502Y-119415820D01*
X99030537Y-119305506D01*
X98951185Y-119208815D01*
X98854494Y-119129463D01*
X98744180Y-119070498D01*
X98624482Y-119034188D01*
X98500000Y-119021928D01*
X94540000Y-119021928D01*
X94415518Y-119034188D01*
X94295820Y-119070498D01*
X94185506Y-119129463D01*
X94088815Y-119208815D01*
X94009463Y-119305506D01*
X93950498Y-119415820D01*
X93914188Y-119535518D01*
X93901928Y-119660000D01*
X88392000Y-119660000D01*
X88392000Y-116871382D01*
X89945885Y-113919000D01*
X103120928Y-113919000D01*
X103120928Y-114681000D01*
X103140509Y-114879811D01*
X103198500Y-115070982D01*
X103292673Y-115247166D01*
X103419407Y-115401593D01*
X103573834Y-115528327D01*
X103750018Y-115622500D01*
X103941189Y-115680491D01*
X104140000Y-115700072D01*
X106680000Y-115700072D01*
X106878811Y-115680491D01*
X107069982Y-115622500D01*
X107246166Y-115528327D01*
X107400593Y-115401593D01*
X107527327Y-115247166D01*
X107621500Y-115070982D01*
X107679491Y-114879811D01*
X107699072Y-114681000D01*
X107699072Y-113919000D01*
X107720928Y-113919000D01*
X107720928Y-114681000D01*
X107740509Y-114879811D01*
X107798500Y-115070982D01*
X107892673Y-115247166D01*
X108019407Y-115401593D01*
X108173834Y-115528327D01*
X108350018Y-115622500D01*
X108541189Y-115680491D01*
X108740000Y-115700072D01*
X109332690Y-115700072D01*
X109375026Y-115779276D01*
X109446201Y-115866002D01*
X109470000Y-115895001D01*
X109498998Y-115918799D01*
X113656497Y-120076299D01*
X113656502Y-120076303D01*
X114230199Y-120650000D01*
X114741200Y-121161002D01*
X114764999Y-121190001D01*
X114793997Y-121213799D01*
X115058997Y-121478799D01*
X115059002Y-121478803D01*
X115672500Y-122092302D01*
X115672500Y-122154439D01*
X115712274Y-122354398D01*
X115790295Y-122542756D01*
X115903563Y-122712274D01*
X116047726Y-122856437D01*
X116217244Y-122969705D01*
X116405602Y-123047726D01*
X116605561Y-123087500D01*
X116809439Y-123087500D01*
X117009398Y-123047726D01*
X117197756Y-122969705D01*
X117367274Y-122856437D01*
X117511437Y-122712274D01*
X117624705Y-122542756D01*
X117702726Y-122354398D01*
X117742500Y-122154439D01*
X117742500Y-121950561D01*
X117702726Y-121750602D01*
X117624705Y-121562244D01*
X117522979Y-121410000D01*
X126685199Y-121410000D01*
X127315000Y-122039802D01*
X127315000Y-122101939D01*
X127354774Y-122301898D01*
X127432795Y-122490256D01*
X127546063Y-122659774D01*
X127690226Y-122803937D01*
X127859744Y-122917205D01*
X128048102Y-122995226D01*
X128248061Y-123035000D01*
X128451939Y-123035000D01*
X128651898Y-122995226D01*
X128840256Y-122917205D01*
X129009774Y-122803937D01*
X129153937Y-122659774D01*
X129267205Y-122490256D01*
X129345226Y-122301898D01*
X129385000Y-122101939D01*
X129385000Y-121898061D01*
X129345226Y-121698102D01*
X129267205Y-121509744D01*
X129200558Y-121410000D01*
X134305199Y-121410000D01*
X134935000Y-122039802D01*
X134935000Y-122101939D01*
X134974774Y-122301898D01*
X135052795Y-122490256D01*
X135166063Y-122659774D01*
X135310226Y-122803937D01*
X135479744Y-122917205D01*
X135668102Y-122995226D01*
X135868061Y-123035000D01*
X136071939Y-123035000D01*
X136271898Y-122995226D01*
X136460256Y-122917205D01*
X136629774Y-122803937D01*
X136773937Y-122659774D01*
X136887205Y-122490256D01*
X136965226Y-122301898D01*
X137005000Y-122101939D01*
X137005000Y-121898061D01*
X136965226Y-121698102D01*
X136887205Y-121509744D01*
X136820558Y-121410000D01*
X141925199Y-121410000D01*
X142555000Y-122039802D01*
X142555000Y-122101939D01*
X142594774Y-122301898D01*
X142672795Y-122490256D01*
X142786063Y-122659774D01*
X142930226Y-122803937D01*
X143099744Y-122917205D01*
X143288102Y-122995226D01*
X143488061Y-123035000D01*
X143691939Y-123035000D01*
X143891898Y-122995226D01*
X144080256Y-122917205D01*
X144249774Y-122803937D01*
X144393937Y-122659774D01*
X144507205Y-122490256D01*
X144585226Y-122301898D01*
X144625000Y-122101939D01*
X144625000Y-121898061D01*
X144585226Y-121698102D01*
X144507205Y-121509744D01*
X144440558Y-121410000D01*
X149545199Y-121410000D01*
X150175000Y-122039802D01*
X150175000Y-122101939D01*
X150214774Y-122301898D01*
X150292795Y-122490256D01*
X150406063Y-122659774D01*
X150550226Y-122803937D01*
X150719744Y-122917205D01*
X150908102Y-122995226D01*
X151108061Y-123035000D01*
X151311939Y-123035000D01*
X151511898Y-122995226D01*
X151700256Y-122917205D01*
X151869774Y-122803937D01*
X152013937Y-122659774D01*
X152127205Y-122490256D01*
X152205226Y-122301898D01*
X152245000Y-122101939D01*
X152245000Y-121898061D01*
X152205226Y-121698102D01*
X152127205Y-121509744D01*
X152060558Y-121410000D01*
X157165199Y-121410000D01*
X157795000Y-122039802D01*
X157795000Y-122101939D01*
X157834774Y-122301898D01*
X157912795Y-122490256D01*
X158026063Y-122659774D01*
X158170226Y-122803937D01*
X158339744Y-122917205D01*
X158528102Y-122995226D01*
X158728061Y-123035000D01*
X158931939Y-123035000D01*
X159131898Y-122995226D01*
X159320256Y-122917205D01*
X159489774Y-122803937D01*
X159633937Y-122659774D01*
X159747205Y-122490256D01*
X159825226Y-122301898D01*
X159865000Y-122101939D01*
X159865000Y-121898061D01*
X159825226Y-121698102D01*
X159747205Y-121509744D01*
X159680558Y-121410000D01*
X164396289Y-121410000D01*
X164440226Y-121453937D01*
X164609744Y-121567205D01*
X164798102Y-121645226D01*
X164998061Y-121685000D01*
X165201939Y-121685000D01*
X165401898Y-121645226D01*
X165590256Y-121567205D01*
X165759774Y-121453937D01*
X165903937Y-121309774D01*
X166017205Y-121140256D01*
X166095226Y-120951898D01*
X166135000Y-120751939D01*
X166135000Y-120548061D01*
X166095226Y-120348102D01*
X166017205Y-120159744D01*
X165903937Y-119990226D01*
X165759774Y-119846063D01*
X165590256Y-119732795D01*
X165401898Y-119654774D01*
X165201939Y-119615000D01*
X164998061Y-119615000D01*
X164798102Y-119654774D01*
X164609744Y-119732795D01*
X164440226Y-119846063D01*
X164396289Y-119890000D01*
X157517322Y-119890000D01*
X157480000Y-119886324D01*
X157442678Y-119890000D01*
X149897322Y-119890000D01*
X149860000Y-119886324D01*
X149822678Y-119890000D01*
X142277322Y-119890000D01*
X142240000Y-119886324D01*
X142202678Y-119890000D01*
X134657322Y-119890000D01*
X134620000Y-119886324D01*
X134582678Y-119890000D01*
X127037322Y-119890000D01*
X127000000Y-119886324D01*
X126962678Y-119890000D01*
X115619802Y-119890000D01*
X115391288Y-119661486D01*
X114731303Y-119001502D01*
X114731299Y-119001497D01*
X111416436Y-115686634D01*
X111478811Y-115680491D01*
X111669982Y-115622500D01*
X111846166Y-115528327D01*
X112000593Y-115401593D01*
X112127327Y-115247166D01*
X112221500Y-115070982D01*
X112279491Y-114879811D01*
X112299072Y-114681000D01*
X112299072Y-114144896D01*
X129235200Y-114144896D01*
X129235200Y-114455104D01*
X129295718Y-114759352D01*
X129414430Y-115045948D01*
X129586773Y-115303877D01*
X129806123Y-115523227D01*
X130064052Y-115695570D01*
X130350648Y-115814282D01*
X130654896Y-115874800D01*
X130965104Y-115874800D01*
X131269352Y-115814282D01*
X131555948Y-115695570D01*
X131813877Y-115523227D01*
X132033227Y-115303877D01*
X132080000Y-115233876D01*
X132126773Y-115303877D01*
X132346123Y-115523227D01*
X132604052Y-115695570D01*
X132890648Y-115814282D01*
X133194896Y-115874800D01*
X133505104Y-115874800D01*
X133809352Y-115814282D01*
X134095948Y-115695570D01*
X134353877Y-115523227D01*
X134573227Y-115303877D01*
X134620000Y-115233876D01*
X134666773Y-115303877D01*
X134886123Y-115523227D01*
X135144052Y-115695570D01*
X135430648Y-115814282D01*
X135734896Y-115874800D01*
X136045104Y-115874800D01*
X136349352Y-115814282D01*
X136635948Y-115695570D01*
X136893877Y-115523227D01*
X137113227Y-115303877D01*
X137160000Y-115233876D01*
X137206773Y-115303877D01*
X137426123Y-115523227D01*
X137684052Y-115695570D01*
X137970648Y-115814282D01*
X138274896Y-115874800D01*
X138585104Y-115874800D01*
X138889352Y-115814282D01*
X139175948Y-115695570D01*
X139433877Y-115523227D01*
X139653227Y-115303877D01*
X139700000Y-115233876D01*
X139746773Y-115303877D01*
X139966123Y-115523227D01*
X140224052Y-115695570D01*
X140510648Y-115814282D01*
X140814896Y-115874800D01*
X141125104Y-115874800D01*
X141429352Y-115814282D01*
X141715948Y-115695570D01*
X141973877Y-115523227D01*
X142193227Y-115303877D01*
X142240000Y-115233876D01*
X142286773Y-115303877D01*
X142506123Y-115523227D01*
X142764052Y-115695570D01*
X143050648Y-115814282D01*
X143354896Y-115874800D01*
X143665104Y-115874800D01*
X143969352Y-115814282D01*
X144255948Y-115695570D01*
X144513877Y-115523227D01*
X144733227Y-115303877D01*
X144780000Y-115233876D01*
X144826773Y-115303877D01*
X145046123Y-115523227D01*
X145304052Y-115695570D01*
X145590648Y-115814282D01*
X145894896Y-115874800D01*
X146205104Y-115874800D01*
X146509352Y-115814282D01*
X146795948Y-115695570D01*
X147053877Y-115523227D01*
X147273227Y-115303877D01*
X147320000Y-115233876D01*
X147366773Y-115303877D01*
X147586123Y-115523227D01*
X147844052Y-115695570D01*
X148130648Y-115814282D01*
X148434896Y-115874800D01*
X148745104Y-115874800D01*
X149049352Y-115814282D01*
X149335948Y-115695570D01*
X149593877Y-115523227D01*
X149813227Y-115303877D01*
X149860000Y-115233876D01*
X149906773Y-115303877D01*
X150126123Y-115523227D01*
X150384052Y-115695570D01*
X150670648Y-115814282D01*
X150974896Y-115874800D01*
X151285104Y-115874800D01*
X151589352Y-115814282D01*
X151875948Y-115695570D01*
X152133877Y-115523227D01*
X152353227Y-115303877D01*
X152525570Y-115045948D01*
X152644282Y-114759352D01*
X152704800Y-114455104D01*
X152704800Y-114144896D01*
X152644282Y-113840648D01*
X152525570Y-113554052D01*
X152353227Y-113296123D01*
X152133877Y-113076773D01*
X151875948Y-112904430D01*
X151589352Y-112785718D01*
X151285104Y-112725200D01*
X150974896Y-112725200D01*
X150670648Y-112785718D01*
X150384052Y-112904430D01*
X150126123Y-113076773D01*
X149906773Y-113296123D01*
X149860000Y-113366124D01*
X149813227Y-113296123D01*
X149593877Y-113076773D01*
X149335948Y-112904430D01*
X149049352Y-112785718D01*
X148745104Y-112725200D01*
X148434896Y-112725200D01*
X148130648Y-112785718D01*
X147844052Y-112904430D01*
X147586123Y-113076773D01*
X147366773Y-113296123D01*
X147320000Y-113366124D01*
X147273227Y-113296123D01*
X147053877Y-113076773D01*
X146795948Y-112904430D01*
X146509352Y-112785718D01*
X146205104Y-112725200D01*
X145894896Y-112725200D01*
X145590648Y-112785718D01*
X145304052Y-112904430D01*
X145046123Y-113076773D01*
X144826773Y-113296123D01*
X144780000Y-113366124D01*
X144733227Y-113296123D01*
X144513877Y-113076773D01*
X144255948Y-112904430D01*
X143969352Y-112785718D01*
X143665104Y-112725200D01*
X143354896Y-112725200D01*
X143050648Y-112785718D01*
X142764052Y-112904430D01*
X142506123Y-113076773D01*
X142286773Y-113296123D01*
X142240000Y-113366124D01*
X142193227Y-113296123D01*
X141973877Y-113076773D01*
X141715948Y-112904430D01*
X141429352Y-112785718D01*
X141125104Y-112725200D01*
X140814896Y-112725200D01*
X140510648Y-112785718D01*
X140224052Y-112904430D01*
X139966123Y-113076773D01*
X139746773Y-113296123D01*
X139700000Y-113366124D01*
X139653227Y-113296123D01*
X139433877Y-113076773D01*
X139175948Y-112904430D01*
X138889352Y-112785718D01*
X138585104Y-112725200D01*
X138274896Y-112725200D01*
X137970648Y-112785718D01*
X137684052Y-112904430D01*
X137426123Y-113076773D01*
X137206773Y-113296123D01*
X137160000Y-113366124D01*
X137113227Y-113296123D01*
X136893877Y-113076773D01*
X136635948Y-112904430D01*
X136349352Y-112785718D01*
X136045104Y-112725200D01*
X135734896Y-112725200D01*
X135430648Y-112785718D01*
X135144052Y-112904430D01*
X134886123Y-113076773D01*
X134666773Y-113296123D01*
X134620000Y-113366124D01*
X134573227Y-113296123D01*
X134353877Y-113076773D01*
X134095948Y-112904430D01*
X133809352Y-112785718D01*
X133505104Y-112725200D01*
X133194896Y-112725200D01*
X132890648Y-112785718D01*
X132604052Y-112904430D01*
X132346123Y-113076773D01*
X132126773Y-113296123D01*
X132080000Y-113366124D01*
X132033227Y-113296123D01*
X131813877Y-113076773D01*
X131555948Y-112904430D01*
X131269352Y-112785718D01*
X130965104Y-112725200D01*
X130654896Y-112725200D01*
X130350648Y-112785718D01*
X130064052Y-112904430D01*
X129806123Y-113076773D01*
X129586773Y-113296123D01*
X129414430Y-113554052D01*
X129295718Y-113840648D01*
X129235200Y-114144896D01*
X112299072Y-114144896D01*
X112299072Y-113919000D01*
X112279491Y-113720189D01*
X112221500Y-113529018D01*
X112127327Y-113352834D01*
X112000593Y-113198407D01*
X111846166Y-113071673D01*
X111669982Y-112977500D01*
X111478811Y-112919509D01*
X111280000Y-112899928D01*
X108740000Y-112899928D01*
X108541189Y-112919509D01*
X108350018Y-112977500D01*
X108173834Y-113071673D01*
X108019407Y-113198407D01*
X107892673Y-113352834D01*
X107798500Y-113529018D01*
X107740509Y-113720189D01*
X107720928Y-113919000D01*
X107699072Y-113919000D01*
X107679491Y-113720189D01*
X107621500Y-113529018D01*
X107527327Y-113352834D01*
X107400593Y-113198407D01*
X107246166Y-113071673D01*
X107069982Y-112977500D01*
X106878811Y-112919509D01*
X106680000Y-112899928D01*
X104140000Y-112899928D01*
X103941189Y-112919509D01*
X103750018Y-112977500D01*
X103573834Y-113071673D01*
X103419407Y-113198407D01*
X103292673Y-113352834D01*
X103198500Y-113529018D01*
X103140509Y-113720189D01*
X103120928Y-113919000D01*
X89945885Y-113919000D01*
X92146772Y-109737314D01*
X117982905Y-109737314D01*
X117982905Y-110262686D01*
X118085400Y-110777963D01*
X118286451Y-111263343D01*
X118578332Y-111700174D01*
X118949826Y-112071668D01*
X119386657Y-112363549D01*
X119872037Y-112564600D01*
X120387314Y-112667095D01*
X120912686Y-112667095D01*
X121427963Y-112564600D01*
X121913343Y-112363549D01*
X122350174Y-112071668D01*
X122721668Y-111700174D01*
X123013549Y-111263343D01*
X123214600Y-110777963D01*
X123317095Y-110262686D01*
X123317095Y-109737314D01*
X123214600Y-109222037D01*
X123013549Y-108736657D01*
X122721668Y-108299826D01*
X122350174Y-107928332D01*
X121913343Y-107636451D01*
X121427963Y-107435400D01*
X120912686Y-107332905D01*
X120387314Y-107332905D01*
X119872037Y-107435400D01*
X119386657Y-107636451D01*
X118949826Y-107928332D01*
X118578332Y-108299826D01*
X118286451Y-108736657D01*
X118085400Y-109222037D01*
X117982905Y-109737314D01*
X92146772Y-109737314D01*
X94691674Y-104902000D01*
X120443264Y-104902000D01*
X127761840Y-112220576D01*
G37*
%TD.AperFunction*%
%TD*%
M02*
