%TF.GenerationSoftware,KiCad,Pcbnew,5.1.10*%
%TF.CreationDate,2021-08-10T02:55:14-04:00*%
%TF.ProjectId,KSG Display Board,4b534720-4469-4737-906c-617920426f61,rev?*%
%TF.SameCoordinates,Original*%
%TF.FileFunction,Copper,L1,Top*%
%TF.FilePolarity,Positive*%
%FSLAX46Y46*%
G04 Gerber Fmt 4.6, Leading zero omitted, Abs format (unit mm)*
G04 Created by KiCad (PCBNEW 5.1.10) date 2021-08-10 02:55:14*
%MOMM*%
%LPD*%
G01*
G04 APERTURE LIST*
%TA.AperFunction,SMDPad,CuDef*%
%ADD10R,1.798320X1.597660*%
%TD*%
%TA.AperFunction,SMDPad,CuDef*%
%ADD11R,1.399540X1.198880*%
%TD*%
%TA.AperFunction,SMDPad,CuDef*%
%ADD12R,1.560000X0.650000*%
%TD*%
%TA.AperFunction,ComponentPad*%
%ADD13O,3.960000X1.980000*%
%TD*%
%TA.AperFunction,ComponentPad*%
%ADD14R,3.960000X1.980000*%
%TD*%
%TA.AperFunction,ComponentPad*%
%ADD15C,1.524000*%
%TD*%
%TA.AperFunction,ComponentPad*%
%ADD16C,1.440000*%
%TD*%
%TA.AperFunction,ComponentPad*%
%ADD17C,1.879600*%
%TD*%
%TA.AperFunction,ViaPad*%
%ADD18C,0.800000*%
%TD*%
%TA.AperFunction,Conductor*%
%ADD19C,0.250000*%
%TD*%
G04 APERTURE END LIST*
D10*
%TO.P,R3,2*%
%TO.N,Net-(R3-Pad2)*%
X176530000Y-121790460D03*
%TO.P,R3,1*%
%TO.N,5V*%
X176530000Y-124589540D03*
%TD*%
%TO.P,R2,2*%
%TO.N,GND*%
X161290000Y-138559540D03*
%TO.P,R2,1*%
%TO.N,Net-(D3-PadC)*%
X161290000Y-135760460D03*
%TD*%
%TO.P,R1,2*%
%TO.N,GND*%
X119380000Y-138559540D03*
%TO.P,R1,1*%
%TO.N,Net-(D1-PadC)*%
X119380000Y-135760460D03*
%TD*%
D11*
%TO.P,D2,C*%
%TO.N,Net-(D1-PadC)*%
X114300000Y-133578600D03*
%TO.P,D2,A*%
%TO.N,Net-(D2-PadA)*%
X114300000Y-130581400D03*
%TD*%
%TO.P,D1,C*%
%TO.N,Net-(D1-PadC)*%
X106680000Y-133578600D03*
%TO.P,D1,A*%
%TO.N,Net-(D1-PadA)*%
X106680000Y-130581400D03*
%TD*%
D12*
%TO.P,U2,5*%
%TO.N,5V*%
X116920000Y-123510000D03*
%TO.P,U2,4*%
%TO.N,Net-(D2-PadA)*%
X116920000Y-125410000D03*
%TO.P,U2,3*%
%TO.N,GND*%
X114220000Y-125410000D03*
%TO.P,U2,2*%
%TO.N,Net-(J1-Pad2)*%
X114220000Y-124460000D03*
%TO.P,U2,1*%
%TO.N,N/C*%
X114220000Y-123510000D03*
%TD*%
%TO.P,U1,5*%
%TO.N,5V*%
X109300000Y-123510000D03*
%TO.P,U1,4*%
%TO.N,Net-(D1-PadA)*%
X109300000Y-125410000D03*
%TO.P,U1,3*%
%TO.N,GND*%
X106600000Y-125410000D03*
%TO.P,U1,2*%
%TO.N,Net-(J1-Pad1)*%
X106600000Y-124460000D03*
%TO.P,U1,1*%
%TO.N,N/C*%
X106600000Y-123510000D03*
%TD*%
%TO.P,S1,3*%
%TO.N,5V*%
%TA.AperFunction,ComponentPad*%
G36*
G01*
X107061000Y-113919000D02*
X107061000Y-114681000D01*
G75*
G02*
X106680000Y-115062000I-381000J0D01*
G01*
X104140000Y-115062000D01*
G75*
G02*
X103759000Y-114681000I0J381000D01*
G01*
X103759000Y-113919000D01*
G75*
G02*
X104140000Y-113538000I381000J0D01*
G01*
X106680000Y-113538000D01*
G75*
G02*
X107061000Y-113919000I0J-381000D01*
G01*
G37*
%TD.AperFunction*%
%TO.P,S1,1*%
%TA.AperFunction,ComponentPad*%
G36*
G01*
X111661000Y-113919000D02*
X111661000Y-114681000D01*
G75*
G02*
X111280000Y-115062000I-381000J0D01*
G01*
X108740000Y-115062000D01*
G75*
G02*
X108359000Y-114681000I0J381000D01*
G01*
X108359000Y-113919000D01*
G75*
G02*
X108740000Y-113538000I381000J0D01*
G01*
X111280000Y-113538000D01*
G75*
G02*
X111661000Y-113919000I0J-381000D01*
G01*
G37*
%TD.AperFunction*%
%TD*%
D13*
%TO.P,J2,2*%
%TO.N,GND*%
X96520000Y-125650000D03*
D14*
%TO.P,J2,1*%
%TO.N,5V*%
X96520000Y-120650000D03*
%TD*%
D15*
%TO.P,SW1,4*%
%TO.N,Net-(SW1-Pad4)*%
X189230000Y-129540000D03*
%TO.P,SW1,3*%
%TO.N,GND*%
X181610000Y-129540000D03*
%TO.P,SW1,2*%
%TO.N,Net-(SW1-Pad2)*%
X189230000Y-124460000D03*
%TO.P,SW1,1*%
%TO.N,Net-(R3-Pad2)*%
X181610000Y-124460000D03*
%TD*%
D16*
%TO.P,VR1,1*%
%TO.N,5V*%
X168910000Y-124460000D03*
%TO.P,VR1,2*%
%TO.N,Net-(J1-Pad8)*%
X166370000Y-127000000D03*
%TO.P,VR1,3*%
%TO.N,GND*%
X168910000Y-129540000D03*
%TD*%
D12*
%TO.P,U9,5*%
%TO.N,5V*%
X171370000Y-116520000D03*
%TO.P,U9,4*%
%TO.N,Net-(J1-Pad9)*%
X171370000Y-114620000D03*
%TO.P,U9,3*%
%TO.N,GND*%
X174070000Y-114620000D03*
%TO.P,U9,2*%
%TO.N,Net-(R3-Pad2)*%
X174070000Y-115570000D03*
%TO.P,U9,1*%
%TO.N,N/C*%
X174070000Y-116520000D03*
%TD*%
%TO.P,U8,5*%
%TO.N,5V*%
X158830000Y-123510000D03*
%TO.P,U8,4*%
%TO.N,Net-(D7-PadA)*%
X158830000Y-125410000D03*
%TO.P,U8,3*%
%TO.N,GND*%
X156130000Y-125410000D03*
%TO.P,U8,2*%
%TO.N,Net-(J1-Pad7)*%
X156130000Y-124460000D03*
%TO.P,U8,1*%
%TO.N,N/C*%
X156130000Y-123510000D03*
%TD*%
%TO.P,U7,5*%
%TO.N,5V*%
X151210000Y-123510000D03*
%TO.P,U7,4*%
%TO.N,Net-(D6-PadA)*%
X151210000Y-125410000D03*
%TO.P,U7,3*%
%TO.N,GND*%
X148510000Y-125410000D03*
%TO.P,U7,2*%
%TO.N,Net-(J1-Pad6)*%
X148510000Y-124460000D03*
%TO.P,U7,1*%
%TO.N,N/C*%
X148510000Y-123510000D03*
%TD*%
%TO.P,U6,5*%
%TO.N,5V*%
X143590000Y-123510000D03*
%TO.P,U6,4*%
%TO.N,Net-(D5-PadA)*%
X143590000Y-125410000D03*
%TO.P,U6,3*%
%TO.N,GND*%
X140890000Y-125410000D03*
%TO.P,U6,2*%
%TO.N,Net-(J1-Pad5)*%
X140890000Y-124460000D03*
%TO.P,U6,1*%
%TO.N,N/C*%
X140890000Y-123510000D03*
%TD*%
%TO.P,U5,5*%
%TO.N,5V*%
X135970000Y-123510000D03*
%TO.P,U5,4*%
%TO.N,Net-(D4-PadA)*%
X135970000Y-125410000D03*
%TO.P,U5,3*%
%TO.N,GND*%
X133270000Y-125410000D03*
%TO.P,U5,2*%
%TO.N,Net-(J1-Pad4)*%
X133270000Y-124460000D03*
%TO.P,U5,1*%
%TO.N,N/C*%
X133270000Y-123510000D03*
%TD*%
%TO.P,U4,5*%
%TO.N,5V*%
X128350000Y-123510000D03*
%TO.P,U4,4*%
%TO.N,Net-(D3-PadA)*%
X128350000Y-125410000D03*
%TO.P,U4,3*%
%TO.N,GND*%
X125650000Y-125410000D03*
%TO.P,U4,2*%
%TO.N,Net-(J1-Pad3)*%
X125650000Y-124460000D03*
%TO.P,U4,1*%
%TO.N,N/C*%
X125650000Y-123510000D03*
%TD*%
D17*
%TO.P,J1,9*%
%TO.N,Net-(J1-Pad9)*%
X151130000Y-114300000D03*
%TO.P,J1,8*%
%TO.N,Net-(J1-Pad8)*%
X148590000Y-114300000D03*
%TO.P,J1,7*%
%TO.N,Net-(J1-Pad7)*%
X146050000Y-114300000D03*
%TO.P,J1,6*%
%TO.N,Net-(J1-Pad6)*%
X143510000Y-114300000D03*
%TO.P,J1,5*%
%TO.N,Net-(J1-Pad5)*%
X140970000Y-114300000D03*
%TO.P,J1,4*%
%TO.N,Net-(J1-Pad4)*%
X138430000Y-114300000D03*
%TO.P,J1,3*%
%TO.N,Net-(J1-Pad3)*%
X135890000Y-114300000D03*
%TO.P,J1,2*%
%TO.N,Net-(J1-Pad2)*%
X133350000Y-114300000D03*
%TO.P,J1,1*%
%TO.N,Net-(J1-Pad1)*%
X130810000Y-114300000D03*
%TD*%
D11*
%TO.P,D7,C*%
%TO.N,Net-(D3-PadC)*%
X156210000Y-133578600D03*
%TO.P,D7,A*%
%TO.N,Net-(D7-PadA)*%
X156210000Y-130581400D03*
%TD*%
%TO.P,D6,C*%
%TO.N,Net-(D3-PadC)*%
X148590000Y-133578600D03*
%TO.P,D6,A*%
%TO.N,Net-(D6-PadA)*%
X148590000Y-130581400D03*
%TD*%
%TO.P,D5,C*%
%TO.N,Net-(D3-PadC)*%
X140970000Y-133578600D03*
%TO.P,D5,A*%
%TO.N,Net-(D5-PadA)*%
X140970000Y-130581400D03*
%TD*%
%TO.P,D4,C*%
%TO.N,Net-(D3-PadC)*%
X133350000Y-133578600D03*
%TO.P,D4,A*%
%TO.N,Net-(D4-PadA)*%
X133350000Y-130581400D03*
%TD*%
%TO.P,D3,C*%
%TO.N,Net-(D3-PadC)*%
X125730000Y-133578600D03*
%TO.P,D3,A*%
%TO.N,Net-(D3-PadA)*%
X125730000Y-130581400D03*
%TD*%
D18*
%TO.N,5V*%
X158830000Y-122000000D03*
X151210000Y-122000000D03*
X143590000Y-122000000D03*
X135970000Y-122000000D03*
X128350000Y-122000000D03*
X165100000Y-120650000D03*
X116707500Y-122052500D03*
%TO.N,GND*%
X121790460Y-138559540D03*
X163700460Y-138559540D03*
X114432500Y-126867500D03*
X106812500Y-126867500D03*
%TD*%
D19*
%TO.N,Net-(D1-PadC)*%
X106680000Y-133578600D02*
X106680000Y-134620000D01*
X106680000Y-134620000D02*
X107820460Y-135760460D01*
X114300000Y-134620000D02*
X115440460Y-135760460D01*
X114300000Y-133578600D02*
X114300000Y-134620000D01*
X115440460Y-135760460D02*
X119380000Y-135760460D01*
X107820460Y-135760460D02*
X115440460Y-135760460D01*
%TO.N,Net-(D1-PadA)*%
X109087500Y-128173900D02*
X106680000Y-130581400D01*
X109087500Y-125410000D02*
X109087500Y-128173900D01*
%TO.N,Net-(D2-PadA)*%
X116707500Y-128173900D02*
X114300000Y-130581400D01*
X116707500Y-125410000D02*
X116707500Y-128173900D01*
%TO.N,Net-(D3-PadC)*%
X125730000Y-133578600D02*
X125730000Y-134620000D01*
X125730000Y-134620000D02*
X126870460Y-135760460D01*
X133350000Y-133578600D02*
X133350000Y-134360920D01*
X133350000Y-134360920D02*
X134749540Y-135760460D01*
X126870460Y-135760460D02*
X134749540Y-135760460D01*
X140970000Y-134360920D02*
X142369540Y-135760460D01*
X140970000Y-133578600D02*
X140970000Y-134360920D01*
X134749540Y-135760460D02*
X142369540Y-135760460D01*
X148590000Y-134360920D02*
X149989540Y-135760460D01*
X148590000Y-133578600D02*
X148590000Y-134360920D01*
X142369540Y-135760460D02*
X149989540Y-135760460D01*
X156210000Y-134360920D02*
X157609540Y-135760460D01*
X156210000Y-133578600D02*
X156210000Y-134360920D01*
X157609540Y-135760460D02*
X161290000Y-135760460D01*
X149989540Y-135760460D02*
X157609540Y-135760460D01*
%TO.N,Net-(D3-PadA)*%
X128350000Y-127961400D02*
X125730000Y-130581400D01*
X128350000Y-125410000D02*
X128350000Y-127961400D01*
%TO.N,Net-(D4-PadA)*%
X135970000Y-127961400D02*
X133350000Y-130581400D01*
X135970000Y-125410000D02*
X135970000Y-127961400D01*
%TO.N,Net-(D5-PadA)*%
X143590000Y-127961400D02*
X140970000Y-130581400D01*
X143590000Y-125410000D02*
X143590000Y-127961400D01*
%TO.N,Net-(D6-PadA)*%
X151210000Y-127961400D02*
X148590000Y-130581400D01*
X151210000Y-125410000D02*
X151210000Y-127961400D01*
%TO.N,Net-(D7-PadA)*%
X158830000Y-127961400D02*
X156210000Y-130581400D01*
X158830000Y-125410000D02*
X158830000Y-127961400D01*
%TO.N,Net-(R3-Pad2)*%
X176530000Y-117000000D02*
X176530000Y-121790460D01*
X175100000Y-115570000D02*
X176530000Y-117000000D01*
X174070000Y-115570000D02*
X175100000Y-115570000D01*
X178940460Y-121790460D02*
X181610000Y-124460000D01*
X176530000Y-121790460D02*
X178940460Y-121790460D01*
%TO.N,5V*%
X106227500Y-120650000D02*
X109087500Y-123510000D01*
X105410000Y-116840000D02*
X101600000Y-120650000D01*
X105410000Y-114300000D02*
X105410000Y-116840000D01*
X101600000Y-120650000D02*
X106227500Y-120650000D01*
X96520000Y-120650000D02*
X101600000Y-120650000D01*
X169039540Y-124589540D02*
X168910000Y-124460000D01*
X176530000Y-124589540D02*
X169039540Y-124589540D01*
X128350000Y-123510000D02*
X128350000Y-122000000D01*
X135970000Y-123510000D02*
X135970000Y-122000000D01*
X143590000Y-123510000D02*
X143590000Y-122000000D01*
X151210000Y-123510000D02*
X151210000Y-122000000D01*
X158830000Y-123510000D02*
X158830000Y-122000000D01*
X158830000Y-122000000D02*
X158830000Y-122000000D01*
X151210000Y-122000000D02*
X151210000Y-122000000D01*
X143590000Y-122000000D02*
X143590000Y-122000000D01*
X135970000Y-122000000D02*
X135970000Y-122000000D01*
X128350000Y-122000000D02*
X128350000Y-122000000D01*
X171370000Y-116520000D02*
X171370000Y-118190000D01*
X171370000Y-118190000D02*
X168910000Y-120650000D01*
X168910000Y-120650000D02*
X165100000Y-120650000D01*
X168910000Y-124460000D02*
X168910000Y-123190000D01*
X168910000Y-123190000D02*
X166370000Y-120650000D01*
X165100000Y-120650000D02*
X165100000Y-120650000D01*
X116707500Y-123510000D02*
X116707500Y-122052500D01*
X116707500Y-122052500D02*
X116707500Y-122052500D01*
%TO.N,Net-(J1-Pad1)*%
X120650000Y-114300000D02*
X130810000Y-114300000D01*
X110490000Y-124460000D02*
X120650000Y-114300000D01*
X106812500Y-124460000D02*
X110490000Y-124460000D01*
%TO.N,Net-(J1-Pad2)*%
X114432500Y-124460000D02*
X118110000Y-124460000D01*
X118110000Y-124460000D02*
X124460000Y-118110000D01*
X129540000Y-118110000D02*
X133350000Y-114300000D01*
X124460000Y-118110000D02*
X129540000Y-118110000D01*
%TO.N,Net-(J1-Pad9)*%
X171050000Y-114300000D02*
X171370000Y-114620000D01*
X151130000Y-114300000D02*
X171050000Y-114300000D01*
%TO.N,Net-(J1-Pad8)*%
X166370000Y-127000000D02*
X166370000Y-124460000D01*
X166370000Y-124460000D02*
X160020000Y-118110000D01*
X160020000Y-118110000D02*
X152400000Y-118110000D01*
X152400000Y-118110000D02*
X148590000Y-114300000D01*
%TO.N,Net-(J1-Pad7)*%
X146050000Y-114300000D02*
X146050000Y-116840000D01*
X146050000Y-116840000D02*
X148590000Y-119380000D01*
X148590000Y-119380000D02*
X152400000Y-119380000D01*
X152400000Y-119380000D02*
X153670000Y-120650000D01*
X155100000Y-124460000D02*
X156130000Y-124460000D01*
X153670000Y-123030000D02*
X155100000Y-124460000D01*
X153670000Y-120650000D02*
X153670000Y-123030000D01*
%TO.N,Net-(J1-Pad6)*%
X143510000Y-114300000D02*
X143510000Y-116840000D01*
X143510000Y-116840000D02*
X146050000Y-119380000D01*
X146050000Y-119380000D02*
X146050000Y-123190000D01*
X147320000Y-124460000D02*
X148510000Y-124460000D01*
X146050000Y-123190000D02*
X147320000Y-124460000D01*
%TO.N,Net-(J1-Pad5)*%
X140970000Y-114300000D02*
X140970000Y-116840000D01*
X140970000Y-116840000D02*
X138430000Y-119380000D01*
X139860000Y-124460000D02*
X140890000Y-124460000D01*
X138430000Y-123030000D02*
X139860000Y-124460000D01*
X138430000Y-119380000D02*
X138430000Y-123030000D01*
%TO.N,Net-(J1-Pad4)*%
X138430000Y-114300000D02*
X138430000Y-116840000D01*
X138430000Y-116840000D02*
X135890000Y-119380000D01*
X135890000Y-119380000D02*
X133350000Y-119380000D01*
X133350000Y-119380000D02*
X130810000Y-121920000D01*
X130810000Y-121920000D02*
X130810000Y-123190000D01*
X132080000Y-124460000D02*
X133270000Y-124460000D01*
X130810000Y-123190000D02*
X132080000Y-124460000D01*
%TO.N,Net-(J1-Pad3)*%
X135890000Y-114300000D02*
X130810000Y-119380000D01*
X130810000Y-119380000D02*
X125730000Y-119380000D01*
X125730000Y-119380000D02*
X123190000Y-121920000D01*
X123190000Y-121920000D02*
X123190000Y-123190000D01*
X124460000Y-124460000D02*
X125650000Y-124460000D01*
X123190000Y-123190000D02*
X124460000Y-124460000D01*
%TO.N,GND*%
X114432500Y-125410000D02*
X114432500Y-126867500D01*
X106812500Y-125410000D02*
X106812500Y-126867500D01*
X119380000Y-138559540D02*
X121790460Y-138559540D01*
X121790460Y-138559540D02*
X121790460Y-138559540D01*
X161290000Y-138559540D02*
X163700460Y-138559540D01*
X163700460Y-138559540D02*
X163700460Y-138559540D01*
X114432500Y-126867500D02*
X114432500Y-126867500D01*
X106812500Y-126867500D02*
X106812500Y-126867500D01*
%TD*%
M02*
