%TF.GenerationSoftware,KiCad,Pcbnew,5.1.10*%
%TF.CreationDate,2021-08-10T02:55:14-04:00*%
%TF.ProjectId,KSG Display Board,4b534720-4469-4737-906c-617920426f61,rev?*%
%TF.SameCoordinates,Original*%
%TF.FileFunction,Legend,Top*%
%TF.FilePolarity,Positive*%
%FSLAX46Y46*%
G04 Gerber Fmt 4.6, Leading zero omitted, Abs format (unit mm)*
G04 Created by KiCad (PCBNEW 5.1.10) date 2021-08-10 02:55:14*
%MOMM*%
%LPD*%
G01*
G04 APERTURE LIST*
%ADD10C,0.066040*%
%ADD11C,0.203200*%
%ADD12C,0.120000*%
%ADD13C,0.100000*%
%ADD14C,0.127000*%
%ADD15C,0.150000*%
G04 APERTURE END LIST*
D10*
%TO.C,R3*%
X176928780Y-123388120D02*
X176928780Y-122991880D01*
X176928780Y-122991880D02*
X176131220Y-122991880D01*
X176131220Y-123388120D02*
X176131220Y-122991880D01*
X176928780Y-123388120D02*
X176131220Y-123388120D01*
%TO.C,R2*%
X160891220Y-136961880D02*
X160891220Y-137358120D01*
X160891220Y-137358120D02*
X161688780Y-137358120D01*
X161688780Y-136961880D02*
X161688780Y-137358120D01*
X160891220Y-136961880D02*
X161688780Y-136961880D01*
%TO.C,R1*%
X118981220Y-136961880D02*
X118981220Y-137358120D01*
X118981220Y-137358120D02*
X119778780Y-137358120D01*
X119778780Y-136961880D02*
X119778780Y-137358120D01*
X118981220Y-136961880D02*
X119778780Y-136961880D01*
D11*
%TO.C,D2*%
X114980720Y-134477760D02*
X113619280Y-134477760D01*
%TO.C,D1*%
X107360720Y-134477760D02*
X105999280Y-134477760D01*
D12*
%TO.C,U2*%
X116470000Y-122850000D02*
X114020000Y-122850000D01*
X114670000Y-126070000D02*
X116470000Y-126070000D01*
%TO.C,U1*%
X108850000Y-122850000D02*
X106400000Y-122850000D01*
X107050000Y-126070000D02*
X108850000Y-126070000D01*
%TO.C,S1*%
X114960000Y-116300000D02*
X95860000Y-116300000D01*
X114960000Y-116300000D02*
X114960000Y-105620000D01*
X95860000Y-116300000D02*
X95860000Y-105620000D01*
X114960000Y-105620000D02*
X95860000Y-105620000D01*
X111760000Y-113030000D02*
X99060000Y-113030000D01*
X99060000Y-113030000D02*
X99060000Y-109220000D01*
X99060000Y-109220000D02*
X111760000Y-109220000D01*
X111760000Y-109220000D02*
X111760000Y-113030000D01*
D13*
G36*
X105410000Y-109220000D02*
G01*
X111760000Y-109220000D01*
X111760000Y-113030000D01*
X105410000Y-113030000D01*
X105410000Y-109220000D01*
G37*
X105410000Y-109220000D02*
X111760000Y-109220000D01*
X111760000Y-113030000D01*
X105410000Y-113030000D01*
X105410000Y-109220000D01*
D12*
%TO.C,J2*%
X102820000Y-128850000D02*
X102820000Y-118000000D01*
X97720000Y-128850000D02*
X102820000Y-128850000D01*
X98020000Y-128350000D02*
X97720000Y-128850000D01*
X92620000Y-128350000D02*
X98020000Y-128350000D01*
X92870000Y-128850000D02*
X92620000Y-128350000D01*
X92820000Y-128850000D02*
X92870000Y-128850000D01*
X90920000Y-128850000D02*
X92820000Y-128850000D01*
X91170000Y-128350000D02*
X90920000Y-128850000D01*
X90220000Y-128350000D02*
X91170000Y-128350000D01*
X90220000Y-118000000D02*
X90220000Y-128350000D01*
X102820000Y-118000000D02*
X90220000Y-118000000D01*
%TO.C,SW1*%
X185420000Y-125095000D02*
X185420000Y-128905000D01*
X185420000Y-125730000D02*
X185420000Y-125095000D01*
X182880000Y-129540000D02*
X187960000Y-129540000D01*
X182880000Y-124460000D02*
X187960000Y-124460000D01*
X189230000Y-123190000D02*
X181610000Y-123190000D01*
X181610000Y-130810000D02*
X189230000Y-130810000D01*
X186690000Y-127000000D02*
G75*
G03*
X186690000Y-127000000I-1270000J0D01*
G01*
X181610000Y-125222000D02*
X181610000Y-128778000D01*
X189230000Y-125222000D02*
X189230000Y-128778000D01*
X189230000Y-123190000D02*
X189230000Y-123698000D01*
X181610000Y-123190000D02*
X181610000Y-123698000D01*
X181610000Y-130810000D02*
X181610000Y-130302000D01*
X189230000Y-130810000D02*
X189230000Y-130302000D01*
%TO.C,VR1*%
X164040000Y-131885000D02*
X164040000Y-122115000D01*
X173810000Y-131885000D02*
X173810000Y-122115000D01*
X173810000Y-122115000D02*
X164040000Y-122115000D01*
X173810000Y-131885000D02*
X164040000Y-131885000D01*
%TO.C,U9*%
X171820000Y-117180000D02*
X174270000Y-117180000D01*
X173620000Y-113960000D02*
X171820000Y-113960000D01*
%TO.C,U8*%
X158380000Y-122850000D02*
X155930000Y-122850000D01*
X156580000Y-126070000D02*
X158380000Y-126070000D01*
%TO.C,U7*%
X150760000Y-122850000D02*
X148310000Y-122850000D01*
X148960000Y-126070000D02*
X150760000Y-126070000D01*
%TO.C,U6*%
X143140000Y-122850000D02*
X140690000Y-122850000D01*
X141340000Y-126070000D02*
X143140000Y-126070000D01*
%TO.C,U5*%
X135520000Y-122850000D02*
X133070000Y-122850000D01*
X133720000Y-126070000D02*
X135520000Y-126070000D01*
%TO.C,U4*%
X127900000Y-122850000D02*
X125450000Y-122850000D01*
X126100000Y-126070000D02*
X127900000Y-126070000D01*
D11*
%TO.C,J1*%
X152400000Y-113665000D02*
X152400000Y-114935000D01*
X151765000Y-115570000D02*
X150495000Y-115570000D01*
X149860000Y-114935000D02*
X150495000Y-115570000D01*
X150495000Y-113030000D02*
X149860000Y-113665000D01*
X152400000Y-114935000D02*
X151765000Y-115570000D01*
X151765000Y-113030000D02*
X152400000Y-113665000D01*
X150495000Y-113030000D02*
X151765000Y-113030000D01*
X149225000Y-115570000D02*
X147955000Y-115570000D01*
X147320000Y-114935000D02*
X147955000Y-115570000D01*
X147955000Y-113030000D02*
X147320000Y-113665000D01*
X149860000Y-114935000D02*
X149225000Y-115570000D01*
X149225000Y-113030000D02*
X149860000Y-113665000D01*
X147955000Y-113030000D02*
X149225000Y-113030000D01*
X131445000Y-115570000D02*
X130175000Y-115570000D01*
X129540000Y-114935000D02*
X130175000Y-115570000D01*
X130175000Y-113030000D02*
X129540000Y-113665000D01*
X129540000Y-113665000D02*
X129540000Y-114935000D01*
X132715000Y-115570000D02*
X132080000Y-114935000D01*
X133985000Y-115570000D02*
X132715000Y-115570000D01*
X134620000Y-114935000D02*
X133985000Y-115570000D01*
X133985000Y-113030000D02*
X134620000Y-113665000D01*
X132715000Y-113030000D02*
X133985000Y-113030000D01*
X132080000Y-113665000D02*
X132715000Y-113030000D01*
X132080000Y-114935000D02*
X131445000Y-115570000D01*
X131445000Y-113030000D02*
X132080000Y-113665000D01*
X130175000Y-113030000D02*
X131445000Y-113030000D01*
X139065000Y-115570000D02*
X137795000Y-115570000D01*
X137160000Y-114935000D02*
X137795000Y-115570000D01*
X137795000Y-113030000D02*
X137160000Y-113665000D01*
X135255000Y-115570000D02*
X134620000Y-114935000D01*
X136525000Y-115570000D02*
X135255000Y-115570000D01*
X137160000Y-114935000D02*
X136525000Y-115570000D01*
X136525000Y-113030000D02*
X137160000Y-113665000D01*
X135255000Y-113030000D02*
X136525000Y-113030000D01*
X134620000Y-113665000D02*
X135255000Y-113030000D01*
X140335000Y-115570000D02*
X139700000Y-114935000D01*
X141605000Y-115570000D02*
X140335000Y-115570000D01*
X142240000Y-114935000D02*
X141605000Y-115570000D01*
X141605000Y-113030000D02*
X142240000Y-113665000D01*
X140335000Y-113030000D02*
X141605000Y-113030000D01*
X139700000Y-113665000D02*
X140335000Y-113030000D01*
X139700000Y-114935000D02*
X139065000Y-115570000D01*
X139065000Y-113030000D02*
X139700000Y-113665000D01*
X137795000Y-113030000D02*
X139065000Y-113030000D01*
X146685000Y-115570000D02*
X145415000Y-115570000D01*
X144780000Y-114935000D02*
X145415000Y-115570000D01*
X145415000Y-113030000D02*
X144780000Y-113665000D01*
X142875000Y-115570000D02*
X142240000Y-114935000D01*
X144145000Y-115570000D02*
X142875000Y-115570000D01*
X144780000Y-114935000D02*
X144145000Y-115570000D01*
X144145000Y-113030000D02*
X144780000Y-113665000D01*
X142875000Y-113030000D02*
X144145000Y-113030000D01*
X142240000Y-113665000D02*
X142875000Y-113030000D01*
X147320000Y-114935000D02*
X146685000Y-115570000D01*
X146685000Y-113030000D02*
X147320000Y-113665000D01*
X145415000Y-113030000D02*
X146685000Y-113030000D01*
%TO.C,D7*%
X156890720Y-134477760D02*
X155529280Y-134477760D01*
%TO.C,D6*%
X149270720Y-134477760D02*
X147909280Y-134477760D01*
%TO.C,D5*%
X141650720Y-134477760D02*
X140289280Y-134477760D01*
%TO.C,D4*%
X134030720Y-134477760D02*
X132669280Y-134477760D01*
%TO.C,D3*%
X126410720Y-134477760D02*
X125049280Y-134477760D01*
%TO.C,R3*%
D14*
X175281771Y-123291600D02*
X174991485Y-123494800D01*
X175281771Y-123639942D02*
X174672171Y-123639942D01*
X174672171Y-123407714D01*
X174701200Y-123349657D01*
X174730228Y-123320628D01*
X174788285Y-123291600D01*
X174875371Y-123291600D01*
X174933428Y-123320628D01*
X174962457Y-123349657D01*
X174991485Y-123407714D01*
X174991485Y-123639942D01*
X174672171Y-123088400D02*
X174672171Y-122711028D01*
X174904400Y-122914228D01*
X174904400Y-122827142D01*
X174933428Y-122769085D01*
X174962457Y-122740057D01*
X175020514Y-122711028D01*
X175165657Y-122711028D01*
X175223714Y-122740057D01*
X175252742Y-122769085D01*
X175281771Y-122827142D01*
X175281771Y-123001314D01*
X175252742Y-123059371D01*
X175223714Y-123088400D01*
X178329771Y-126020285D02*
X178039485Y-126223485D01*
X178329771Y-126368628D02*
X177720171Y-126368628D01*
X177720171Y-126136400D01*
X177749200Y-126078342D01*
X177778228Y-126049314D01*
X177836285Y-126020285D01*
X177923371Y-126020285D01*
X177981428Y-126049314D01*
X178010457Y-126078342D01*
X178039485Y-126136400D01*
X178039485Y-126368628D01*
X178010457Y-125759028D02*
X178010457Y-125555828D01*
X178329771Y-125468742D02*
X178329771Y-125759028D01*
X177720171Y-125759028D01*
X177720171Y-125468742D01*
X178300742Y-125236514D02*
X178329771Y-125149428D01*
X178329771Y-125004285D01*
X178300742Y-124946228D01*
X178271714Y-124917200D01*
X178213657Y-124888171D01*
X178155600Y-124888171D01*
X178097542Y-124917200D01*
X178068514Y-124946228D01*
X178039485Y-125004285D01*
X178010457Y-125120400D01*
X177981428Y-125178457D01*
X177952400Y-125207485D01*
X177894342Y-125236514D01*
X177836285Y-125236514D01*
X177778228Y-125207485D01*
X177749200Y-125178457D01*
X177720171Y-125120400D01*
X177720171Y-124975257D01*
X177749200Y-124888171D01*
X178329771Y-124626914D02*
X177720171Y-124626914D01*
X178300742Y-124365657D02*
X178329771Y-124278571D01*
X178329771Y-124133428D01*
X178300742Y-124075371D01*
X178271714Y-124046342D01*
X178213657Y-124017314D01*
X178155600Y-124017314D01*
X178097542Y-124046342D01*
X178068514Y-124075371D01*
X178039485Y-124133428D01*
X178010457Y-124249542D01*
X177981428Y-124307600D01*
X177952400Y-124336628D01*
X177894342Y-124365657D01*
X177836285Y-124365657D01*
X177778228Y-124336628D01*
X177749200Y-124307600D01*
X177720171Y-124249542D01*
X177720171Y-124104400D01*
X177749200Y-124017314D01*
X177720171Y-123843142D02*
X177720171Y-123494800D01*
X178329771Y-123668971D02*
X177720171Y-123668971D01*
X177720171Y-123175485D02*
X177720171Y-123059371D01*
X177749200Y-123001314D01*
X177807257Y-122943257D01*
X177923371Y-122914228D01*
X178126571Y-122914228D01*
X178242685Y-122943257D01*
X178300742Y-123001314D01*
X178329771Y-123059371D01*
X178329771Y-123175485D01*
X178300742Y-123233542D01*
X178242685Y-123291600D01*
X178126571Y-123320628D01*
X177923371Y-123320628D01*
X177807257Y-123291600D01*
X177749200Y-123233542D01*
X177720171Y-123175485D01*
X178329771Y-122304628D02*
X178039485Y-122507828D01*
X178329771Y-122652971D02*
X177720171Y-122652971D01*
X177720171Y-122420742D01*
X177749200Y-122362685D01*
X177778228Y-122333657D01*
X177836285Y-122304628D01*
X177923371Y-122304628D01*
X177981428Y-122333657D01*
X178010457Y-122362685D01*
X178039485Y-122420742D01*
X178039485Y-122652971D01*
X178329771Y-121724057D02*
X178329771Y-122072400D01*
X178329771Y-121898228D02*
X177720171Y-121898228D01*
X177807257Y-121956285D01*
X177865314Y-122014342D01*
X177894342Y-122072400D01*
X177778228Y-121491828D02*
X177749200Y-121462800D01*
X177720171Y-121404742D01*
X177720171Y-121259600D01*
X177749200Y-121201542D01*
X177778228Y-121172514D01*
X177836285Y-121143485D01*
X177894342Y-121143485D01*
X177981428Y-121172514D01*
X178329771Y-121520857D01*
X178329771Y-121143485D01*
X177720171Y-120766114D02*
X177720171Y-120708057D01*
X177749200Y-120650000D01*
X177778228Y-120620971D01*
X177836285Y-120591942D01*
X177952400Y-120562914D01*
X178097542Y-120562914D01*
X178213657Y-120591942D01*
X178271714Y-120620971D01*
X178300742Y-120650000D01*
X178329771Y-120708057D01*
X178329771Y-120766114D01*
X178300742Y-120824171D01*
X178271714Y-120853200D01*
X178213657Y-120882228D01*
X178097542Y-120911257D01*
X177952400Y-120911257D01*
X177836285Y-120882228D01*
X177778228Y-120853200D01*
X177749200Y-120824171D01*
X177720171Y-120766114D01*
X177720171Y-120040400D02*
X177720171Y-120156514D01*
X177749200Y-120214571D01*
X177778228Y-120243600D01*
X177865314Y-120301657D01*
X177981428Y-120330685D01*
X178213657Y-120330685D01*
X178271714Y-120301657D01*
X178300742Y-120272628D01*
X178329771Y-120214571D01*
X178329771Y-120098457D01*
X178300742Y-120040400D01*
X178271714Y-120011371D01*
X178213657Y-119982342D01*
X178068514Y-119982342D01*
X178010457Y-120011371D01*
X177981428Y-120040400D01*
X177952400Y-120098457D01*
X177952400Y-120214571D01*
X177981428Y-120272628D01*
X178010457Y-120301657D01*
X178068514Y-120330685D01*
%TO.C,R2*%
X163089771Y-137261600D02*
X162799485Y-137464800D01*
X163089771Y-137609942D02*
X162480171Y-137609942D01*
X162480171Y-137377714D01*
X162509200Y-137319657D01*
X162538228Y-137290628D01*
X162596285Y-137261600D01*
X162683371Y-137261600D01*
X162741428Y-137290628D01*
X162770457Y-137319657D01*
X162799485Y-137377714D01*
X162799485Y-137609942D01*
X162538228Y-137029371D02*
X162509200Y-137000342D01*
X162480171Y-136942285D01*
X162480171Y-136797142D01*
X162509200Y-136739085D01*
X162538228Y-136710057D01*
X162596285Y-136681028D01*
X162654342Y-136681028D01*
X162741428Y-136710057D01*
X163089771Y-137058400D01*
X163089771Y-136681028D01*
X160041771Y-139990285D02*
X159751485Y-140193485D01*
X160041771Y-140338628D02*
X159432171Y-140338628D01*
X159432171Y-140106400D01*
X159461200Y-140048342D01*
X159490228Y-140019314D01*
X159548285Y-139990285D01*
X159635371Y-139990285D01*
X159693428Y-140019314D01*
X159722457Y-140048342D01*
X159751485Y-140106400D01*
X159751485Y-140338628D01*
X159722457Y-139729028D02*
X159722457Y-139525828D01*
X160041771Y-139438742D02*
X160041771Y-139729028D01*
X159432171Y-139729028D01*
X159432171Y-139438742D01*
X160012742Y-139206514D02*
X160041771Y-139119428D01*
X160041771Y-138974285D01*
X160012742Y-138916228D01*
X159983714Y-138887200D01*
X159925657Y-138858171D01*
X159867600Y-138858171D01*
X159809542Y-138887200D01*
X159780514Y-138916228D01*
X159751485Y-138974285D01*
X159722457Y-139090400D01*
X159693428Y-139148457D01*
X159664400Y-139177485D01*
X159606342Y-139206514D01*
X159548285Y-139206514D01*
X159490228Y-139177485D01*
X159461200Y-139148457D01*
X159432171Y-139090400D01*
X159432171Y-138945257D01*
X159461200Y-138858171D01*
X160041771Y-138596914D02*
X159432171Y-138596914D01*
X160012742Y-138335657D02*
X160041771Y-138248571D01*
X160041771Y-138103428D01*
X160012742Y-138045371D01*
X159983714Y-138016342D01*
X159925657Y-137987314D01*
X159867600Y-137987314D01*
X159809542Y-138016342D01*
X159780514Y-138045371D01*
X159751485Y-138103428D01*
X159722457Y-138219542D01*
X159693428Y-138277600D01*
X159664400Y-138306628D01*
X159606342Y-138335657D01*
X159548285Y-138335657D01*
X159490228Y-138306628D01*
X159461200Y-138277600D01*
X159432171Y-138219542D01*
X159432171Y-138074400D01*
X159461200Y-137987314D01*
X159432171Y-137813142D02*
X159432171Y-137464800D01*
X160041771Y-137638971D02*
X159432171Y-137638971D01*
X159432171Y-137145485D02*
X159432171Y-137029371D01*
X159461200Y-136971314D01*
X159519257Y-136913257D01*
X159635371Y-136884228D01*
X159838571Y-136884228D01*
X159954685Y-136913257D01*
X160012742Y-136971314D01*
X160041771Y-137029371D01*
X160041771Y-137145485D01*
X160012742Y-137203542D01*
X159954685Y-137261600D01*
X159838571Y-137290628D01*
X159635371Y-137290628D01*
X159519257Y-137261600D01*
X159461200Y-137203542D01*
X159432171Y-137145485D01*
X160041771Y-136274628D02*
X159751485Y-136477828D01*
X160041771Y-136622971D02*
X159432171Y-136622971D01*
X159432171Y-136390742D01*
X159461200Y-136332685D01*
X159490228Y-136303657D01*
X159548285Y-136274628D01*
X159635371Y-136274628D01*
X159693428Y-136303657D01*
X159722457Y-136332685D01*
X159751485Y-136390742D01*
X159751485Y-136622971D01*
X160041771Y-135694057D02*
X160041771Y-136042400D01*
X160041771Y-135868228D02*
X159432171Y-135868228D01*
X159519257Y-135926285D01*
X159577314Y-135984342D01*
X159606342Y-136042400D01*
X159490228Y-135461828D02*
X159461200Y-135432800D01*
X159432171Y-135374742D01*
X159432171Y-135229600D01*
X159461200Y-135171542D01*
X159490228Y-135142514D01*
X159548285Y-135113485D01*
X159606342Y-135113485D01*
X159693428Y-135142514D01*
X160041771Y-135490857D01*
X160041771Y-135113485D01*
X159432171Y-134736114D02*
X159432171Y-134678057D01*
X159461200Y-134620000D01*
X159490228Y-134590971D01*
X159548285Y-134561942D01*
X159664400Y-134532914D01*
X159809542Y-134532914D01*
X159925657Y-134561942D01*
X159983714Y-134590971D01*
X160012742Y-134620000D01*
X160041771Y-134678057D01*
X160041771Y-134736114D01*
X160012742Y-134794171D01*
X159983714Y-134823200D01*
X159925657Y-134852228D01*
X159809542Y-134881257D01*
X159664400Y-134881257D01*
X159548285Y-134852228D01*
X159490228Y-134823200D01*
X159461200Y-134794171D01*
X159432171Y-134736114D01*
X159432171Y-134010400D02*
X159432171Y-134126514D01*
X159461200Y-134184571D01*
X159490228Y-134213600D01*
X159577314Y-134271657D01*
X159693428Y-134300685D01*
X159925657Y-134300685D01*
X159983714Y-134271657D01*
X160012742Y-134242628D01*
X160041771Y-134184571D01*
X160041771Y-134068457D01*
X160012742Y-134010400D01*
X159983714Y-133981371D01*
X159925657Y-133952342D01*
X159780514Y-133952342D01*
X159722457Y-133981371D01*
X159693428Y-134010400D01*
X159664400Y-134068457D01*
X159664400Y-134184571D01*
X159693428Y-134242628D01*
X159722457Y-134271657D01*
X159780514Y-134300685D01*
%TO.C,R1*%
X121179771Y-137261600D02*
X120889485Y-137464800D01*
X121179771Y-137609942D02*
X120570171Y-137609942D01*
X120570171Y-137377714D01*
X120599200Y-137319657D01*
X120628228Y-137290628D01*
X120686285Y-137261600D01*
X120773371Y-137261600D01*
X120831428Y-137290628D01*
X120860457Y-137319657D01*
X120889485Y-137377714D01*
X120889485Y-137609942D01*
X121179771Y-136681028D02*
X121179771Y-137029371D01*
X121179771Y-136855200D02*
X120570171Y-136855200D01*
X120657257Y-136913257D01*
X120715314Y-136971314D01*
X120744342Y-137029371D01*
X118131771Y-139990285D02*
X117841485Y-140193485D01*
X118131771Y-140338628D02*
X117522171Y-140338628D01*
X117522171Y-140106400D01*
X117551200Y-140048342D01*
X117580228Y-140019314D01*
X117638285Y-139990285D01*
X117725371Y-139990285D01*
X117783428Y-140019314D01*
X117812457Y-140048342D01*
X117841485Y-140106400D01*
X117841485Y-140338628D01*
X117812457Y-139729028D02*
X117812457Y-139525828D01*
X118131771Y-139438742D02*
X118131771Y-139729028D01*
X117522171Y-139729028D01*
X117522171Y-139438742D01*
X118102742Y-139206514D02*
X118131771Y-139119428D01*
X118131771Y-138974285D01*
X118102742Y-138916228D01*
X118073714Y-138887200D01*
X118015657Y-138858171D01*
X117957600Y-138858171D01*
X117899542Y-138887200D01*
X117870514Y-138916228D01*
X117841485Y-138974285D01*
X117812457Y-139090400D01*
X117783428Y-139148457D01*
X117754400Y-139177485D01*
X117696342Y-139206514D01*
X117638285Y-139206514D01*
X117580228Y-139177485D01*
X117551200Y-139148457D01*
X117522171Y-139090400D01*
X117522171Y-138945257D01*
X117551200Y-138858171D01*
X118131771Y-138596914D02*
X117522171Y-138596914D01*
X118102742Y-138335657D02*
X118131771Y-138248571D01*
X118131771Y-138103428D01*
X118102742Y-138045371D01*
X118073714Y-138016342D01*
X118015657Y-137987314D01*
X117957600Y-137987314D01*
X117899542Y-138016342D01*
X117870514Y-138045371D01*
X117841485Y-138103428D01*
X117812457Y-138219542D01*
X117783428Y-138277600D01*
X117754400Y-138306628D01*
X117696342Y-138335657D01*
X117638285Y-138335657D01*
X117580228Y-138306628D01*
X117551200Y-138277600D01*
X117522171Y-138219542D01*
X117522171Y-138074400D01*
X117551200Y-137987314D01*
X117522171Y-137813142D02*
X117522171Y-137464800D01*
X118131771Y-137638971D02*
X117522171Y-137638971D01*
X117522171Y-137145485D02*
X117522171Y-137029371D01*
X117551200Y-136971314D01*
X117609257Y-136913257D01*
X117725371Y-136884228D01*
X117928571Y-136884228D01*
X118044685Y-136913257D01*
X118102742Y-136971314D01*
X118131771Y-137029371D01*
X118131771Y-137145485D01*
X118102742Y-137203542D01*
X118044685Y-137261600D01*
X117928571Y-137290628D01*
X117725371Y-137290628D01*
X117609257Y-137261600D01*
X117551200Y-137203542D01*
X117522171Y-137145485D01*
X118131771Y-136274628D02*
X117841485Y-136477828D01*
X118131771Y-136622971D02*
X117522171Y-136622971D01*
X117522171Y-136390742D01*
X117551200Y-136332685D01*
X117580228Y-136303657D01*
X117638285Y-136274628D01*
X117725371Y-136274628D01*
X117783428Y-136303657D01*
X117812457Y-136332685D01*
X117841485Y-136390742D01*
X117841485Y-136622971D01*
X118131771Y-135694057D02*
X118131771Y-136042400D01*
X118131771Y-135868228D02*
X117522171Y-135868228D01*
X117609257Y-135926285D01*
X117667314Y-135984342D01*
X117696342Y-136042400D01*
X117580228Y-135461828D02*
X117551200Y-135432800D01*
X117522171Y-135374742D01*
X117522171Y-135229600D01*
X117551200Y-135171542D01*
X117580228Y-135142514D01*
X117638285Y-135113485D01*
X117696342Y-135113485D01*
X117783428Y-135142514D01*
X118131771Y-135490857D01*
X118131771Y-135113485D01*
X117522171Y-134736114D02*
X117522171Y-134678057D01*
X117551200Y-134620000D01*
X117580228Y-134590971D01*
X117638285Y-134561942D01*
X117754400Y-134532914D01*
X117899542Y-134532914D01*
X118015657Y-134561942D01*
X118073714Y-134590971D01*
X118102742Y-134620000D01*
X118131771Y-134678057D01*
X118131771Y-134736114D01*
X118102742Y-134794171D01*
X118073714Y-134823200D01*
X118015657Y-134852228D01*
X117899542Y-134881257D01*
X117754400Y-134881257D01*
X117638285Y-134852228D01*
X117580228Y-134823200D01*
X117551200Y-134794171D01*
X117522171Y-134736114D01*
X117522171Y-134010400D02*
X117522171Y-134126514D01*
X117551200Y-134184571D01*
X117580228Y-134213600D01*
X117667314Y-134271657D01*
X117783428Y-134300685D01*
X118015657Y-134300685D01*
X118073714Y-134271657D01*
X118102742Y-134242628D01*
X118131771Y-134184571D01*
X118131771Y-134068457D01*
X118102742Y-134010400D01*
X118073714Y-133981371D01*
X118015657Y-133952342D01*
X117870514Y-133952342D01*
X117812457Y-133981371D01*
X117783428Y-134010400D01*
X117754400Y-134068457D01*
X117754400Y-134184571D01*
X117783428Y-134242628D01*
X117812457Y-134271657D01*
X117870514Y-134300685D01*
%TO.C,D2*%
X115845771Y-132529942D02*
X115236171Y-132529942D01*
X115236171Y-132384800D01*
X115265200Y-132297714D01*
X115323257Y-132239657D01*
X115381314Y-132210628D01*
X115497428Y-132181600D01*
X115584514Y-132181600D01*
X115700628Y-132210628D01*
X115758685Y-132239657D01*
X115816742Y-132297714D01*
X115845771Y-132384800D01*
X115845771Y-132529942D01*
X115294228Y-131949371D02*
X115265200Y-131920342D01*
X115236171Y-131862285D01*
X115236171Y-131717142D01*
X115265200Y-131659085D01*
X115294228Y-131630057D01*
X115352285Y-131601028D01*
X115410342Y-131601028D01*
X115497428Y-131630057D01*
X115845771Y-131978400D01*
X115845771Y-131601028D01*
X113305771Y-135030028D02*
X113305771Y-135320314D01*
X112696171Y-135320314D01*
X112986457Y-134826828D02*
X112986457Y-134623628D01*
X113305771Y-134536542D02*
X113305771Y-134826828D01*
X112696171Y-134826828D01*
X112696171Y-134536542D01*
X113305771Y-134275285D02*
X112696171Y-134275285D01*
X112696171Y-134130142D01*
X112725200Y-134043057D01*
X112783257Y-133985000D01*
X112841314Y-133955971D01*
X112957428Y-133926942D01*
X113044514Y-133926942D01*
X113160628Y-133955971D01*
X113218685Y-133985000D01*
X113276742Y-134043057D01*
X113305771Y-134130142D01*
X113305771Y-134275285D01*
X113073542Y-133665685D02*
X113073542Y-133201228D01*
X112986457Y-132707742D02*
X113015485Y-132620657D01*
X113044514Y-132591628D01*
X113102571Y-132562600D01*
X113189657Y-132562600D01*
X113247714Y-132591628D01*
X113276742Y-132620657D01*
X113305771Y-132678714D01*
X113305771Y-132910942D01*
X112696171Y-132910942D01*
X112696171Y-132707742D01*
X112725200Y-132649685D01*
X112754228Y-132620657D01*
X112812285Y-132591628D01*
X112870342Y-132591628D01*
X112928400Y-132620657D01*
X112957428Y-132649685D01*
X112986457Y-132707742D01*
X112986457Y-132910942D01*
X113305771Y-132011057D02*
X113305771Y-132301342D01*
X112696171Y-132301342D01*
X112696171Y-131807857D02*
X113189657Y-131807857D01*
X113247714Y-131778828D01*
X113276742Y-131749800D01*
X113305771Y-131691742D01*
X113305771Y-131575628D01*
X113276742Y-131517571D01*
X113247714Y-131488542D01*
X113189657Y-131459514D01*
X112696171Y-131459514D01*
X112986457Y-131169228D02*
X112986457Y-130966028D01*
X113305771Y-130878942D02*
X113305771Y-131169228D01*
X112696171Y-131169228D01*
X112696171Y-130878942D01*
X113305771Y-130298371D02*
X113305771Y-130646714D01*
X113305771Y-130472542D02*
X112696171Y-130472542D01*
X112783257Y-130530600D01*
X112841314Y-130588657D01*
X112870342Y-130646714D01*
X112754228Y-130066142D02*
X112725200Y-130037114D01*
X112696171Y-129979057D01*
X112696171Y-129833914D01*
X112725200Y-129775857D01*
X112754228Y-129746828D01*
X112812285Y-129717800D01*
X112870342Y-129717800D01*
X112957428Y-129746828D01*
X113305771Y-130095171D01*
X113305771Y-129717800D01*
X112696171Y-129340428D02*
X112696171Y-129282371D01*
X112725200Y-129224314D01*
X112754228Y-129195285D01*
X112812285Y-129166257D01*
X112928400Y-129137228D01*
X113073542Y-129137228D01*
X113189657Y-129166257D01*
X113247714Y-129195285D01*
X113276742Y-129224314D01*
X113305771Y-129282371D01*
X113305771Y-129340428D01*
X113276742Y-129398485D01*
X113247714Y-129427514D01*
X113189657Y-129456542D01*
X113073542Y-129485571D01*
X112928400Y-129485571D01*
X112812285Y-129456542D01*
X112754228Y-129427514D01*
X112725200Y-129398485D01*
X112696171Y-129340428D01*
X112696171Y-128614714D02*
X112696171Y-128730828D01*
X112725200Y-128788885D01*
X112754228Y-128817914D01*
X112841314Y-128875971D01*
X112957428Y-128905000D01*
X113189657Y-128905000D01*
X113247714Y-128875971D01*
X113276742Y-128846942D01*
X113305771Y-128788885D01*
X113305771Y-128672771D01*
X113276742Y-128614714D01*
X113247714Y-128585685D01*
X113189657Y-128556657D01*
X113044514Y-128556657D01*
X112986457Y-128585685D01*
X112957428Y-128614714D01*
X112928400Y-128672771D01*
X112928400Y-128788885D01*
X112957428Y-128846942D01*
X112986457Y-128875971D01*
X113044514Y-128905000D01*
%TO.C,D1*%
X108225771Y-132529942D02*
X107616171Y-132529942D01*
X107616171Y-132384800D01*
X107645200Y-132297714D01*
X107703257Y-132239657D01*
X107761314Y-132210628D01*
X107877428Y-132181600D01*
X107964514Y-132181600D01*
X108080628Y-132210628D01*
X108138685Y-132239657D01*
X108196742Y-132297714D01*
X108225771Y-132384800D01*
X108225771Y-132529942D01*
X108225771Y-131601028D02*
X108225771Y-131949371D01*
X108225771Y-131775200D02*
X107616171Y-131775200D01*
X107703257Y-131833257D01*
X107761314Y-131891314D01*
X107790342Y-131949371D01*
X105685771Y-135030028D02*
X105685771Y-135320314D01*
X105076171Y-135320314D01*
X105366457Y-134826828D02*
X105366457Y-134623628D01*
X105685771Y-134536542D02*
X105685771Y-134826828D01*
X105076171Y-134826828D01*
X105076171Y-134536542D01*
X105685771Y-134275285D02*
X105076171Y-134275285D01*
X105076171Y-134130142D01*
X105105200Y-134043057D01*
X105163257Y-133985000D01*
X105221314Y-133955971D01*
X105337428Y-133926942D01*
X105424514Y-133926942D01*
X105540628Y-133955971D01*
X105598685Y-133985000D01*
X105656742Y-134043057D01*
X105685771Y-134130142D01*
X105685771Y-134275285D01*
X105453542Y-133665685D02*
X105453542Y-133201228D01*
X105366457Y-132707742D02*
X105395485Y-132620657D01*
X105424514Y-132591628D01*
X105482571Y-132562600D01*
X105569657Y-132562600D01*
X105627714Y-132591628D01*
X105656742Y-132620657D01*
X105685771Y-132678714D01*
X105685771Y-132910942D01*
X105076171Y-132910942D01*
X105076171Y-132707742D01*
X105105200Y-132649685D01*
X105134228Y-132620657D01*
X105192285Y-132591628D01*
X105250342Y-132591628D01*
X105308400Y-132620657D01*
X105337428Y-132649685D01*
X105366457Y-132707742D01*
X105366457Y-132910942D01*
X105685771Y-132011057D02*
X105685771Y-132301342D01*
X105076171Y-132301342D01*
X105076171Y-131807857D02*
X105569657Y-131807857D01*
X105627714Y-131778828D01*
X105656742Y-131749800D01*
X105685771Y-131691742D01*
X105685771Y-131575628D01*
X105656742Y-131517571D01*
X105627714Y-131488542D01*
X105569657Y-131459514D01*
X105076171Y-131459514D01*
X105366457Y-131169228D02*
X105366457Y-130966028D01*
X105685771Y-130878942D02*
X105685771Y-131169228D01*
X105076171Y-131169228D01*
X105076171Y-130878942D01*
X105685771Y-130298371D02*
X105685771Y-130646714D01*
X105685771Y-130472542D02*
X105076171Y-130472542D01*
X105163257Y-130530600D01*
X105221314Y-130588657D01*
X105250342Y-130646714D01*
X105134228Y-130066142D02*
X105105200Y-130037114D01*
X105076171Y-129979057D01*
X105076171Y-129833914D01*
X105105200Y-129775857D01*
X105134228Y-129746828D01*
X105192285Y-129717800D01*
X105250342Y-129717800D01*
X105337428Y-129746828D01*
X105685771Y-130095171D01*
X105685771Y-129717800D01*
X105076171Y-129340428D02*
X105076171Y-129282371D01*
X105105200Y-129224314D01*
X105134228Y-129195285D01*
X105192285Y-129166257D01*
X105308400Y-129137228D01*
X105453542Y-129137228D01*
X105569657Y-129166257D01*
X105627714Y-129195285D01*
X105656742Y-129224314D01*
X105685771Y-129282371D01*
X105685771Y-129340428D01*
X105656742Y-129398485D01*
X105627714Y-129427514D01*
X105569657Y-129456542D01*
X105453542Y-129485571D01*
X105308400Y-129485571D01*
X105192285Y-129456542D01*
X105134228Y-129427514D01*
X105105200Y-129398485D01*
X105076171Y-129340428D01*
X105076171Y-128614714D02*
X105076171Y-128730828D01*
X105105200Y-128788885D01*
X105134228Y-128817914D01*
X105221314Y-128875971D01*
X105337428Y-128905000D01*
X105569657Y-128905000D01*
X105627714Y-128875971D01*
X105656742Y-128846942D01*
X105685771Y-128788885D01*
X105685771Y-128672771D01*
X105656742Y-128614714D01*
X105627714Y-128585685D01*
X105569657Y-128556657D01*
X105424514Y-128556657D01*
X105366457Y-128585685D01*
X105337428Y-128614714D01*
X105308400Y-128672771D01*
X105308400Y-128788885D01*
X105337428Y-128846942D01*
X105366457Y-128875971D01*
X105424514Y-128905000D01*
%TO.C,U2*%
D15*
X114808095Y-121012380D02*
X114808095Y-121821904D01*
X114855714Y-121917142D01*
X114903333Y-121964761D01*
X114998571Y-122012380D01*
X115189047Y-122012380D01*
X115284285Y-121964761D01*
X115331904Y-121917142D01*
X115379523Y-121821904D01*
X115379523Y-121012380D01*
X115808095Y-121107619D02*
X115855714Y-121060000D01*
X115950952Y-121012380D01*
X116189047Y-121012380D01*
X116284285Y-121060000D01*
X116331904Y-121107619D01*
X116379523Y-121202857D01*
X116379523Y-121298095D01*
X116331904Y-121440952D01*
X115760476Y-122012380D01*
X116379523Y-122012380D01*
%TO.C,U1*%
X107188095Y-121012380D02*
X107188095Y-121821904D01*
X107235714Y-121917142D01*
X107283333Y-121964761D01*
X107378571Y-122012380D01*
X107569047Y-122012380D01*
X107664285Y-121964761D01*
X107711904Y-121917142D01*
X107759523Y-121821904D01*
X107759523Y-121012380D01*
X108759523Y-122012380D02*
X108188095Y-122012380D01*
X108473809Y-122012380D02*
X108473809Y-121012380D01*
X108378571Y-121155238D01*
X108283333Y-121250476D01*
X108188095Y-121298095D01*
%TO.C,S1*%
X104648095Y-117879761D02*
X104790952Y-117927380D01*
X105029047Y-117927380D01*
X105124285Y-117879761D01*
X105171904Y-117832142D01*
X105219523Y-117736904D01*
X105219523Y-117641666D01*
X105171904Y-117546428D01*
X105124285Y-117498809D01*
X105029047Y-117451190D01*
X104838571Y-117403571D01*
X104743333Y-117355952D01*
X104695714Y-117308333D01*
X104648095Y-117213095D01*
X104648095Y-117117857D01*
X104695714Y-117022619D01*
X104743333Y-116975000D01*
X104838571Y-116927380D01*
X105076666Y-116927380D01*
X105219523Y-116975000D01*
X106171904Y-117927380D02*
X105600476Y-117927380D01*
X105886190Y-117927380D02*
X105886190Y-116927380D01*
X105790952Y-117070238D01*
X105695714Y-117165476D01*
X105600476Y-117213095D01*
%TO.C,J2*%
X102962380Y-119063333D02*
X103676666Y-119063333D01*
X103819523Y-119110952D01*
X103914761Y-119206190D01*
X103962380Y-119349047D01*
X103962380Y-119444285D01*
X103057619Y-118634761D02*
X103010000Y-118587142D01*
X102962380Y-118491904D01*
X102962380Y-118253809D01*
X103010000Y-118158571D01*
X103057619Y-118110952D01*
X103152857Y-118063333D01*
X103248095Y-118063333D01*
X103390952Y-118110952D01*
X103962380Y-118682380D01*
X103962380Y-118063333D01*
%TO.C,SW1*%
X184086666Y-122824761D02*
X184229523Y-122872380D01*
X184467619Y-122872380D01*
X184562857Y-122824761D01*
X184610476Y-122777142D01*
X184658095Y-122681904D01*
X184658095Y-122586666D01*
X184610476Y-122491428D01*
X184562857Y-122443809D01*
X184467619Y-122396190D01*
X184277142Y-122348571D01*
X184181904Y-122300952D01*
X184134285Y-122253333D01*
X184086666Y-122158095D01*
X184086666Y-122062857D01*
X184134285Y-121967619D01*
X184181904Y-121920000D01*
X184277142Y-121872380D01*
X184515238Y-121872380D01*
X184658095Y-121920000D01*
X184991428Y-121872380D02*
X185229523Y-122872380D01*
X185420000Y-122158095D01*
X185610476Y-122872380D01*
X185848571Y-121872380D01*
X186753333Y-122872380D02*
X186181904Y-122872380D01*
X186467619Y-122872380D02*
X186467619Y-121872380D01*
X186372380Y-122015238D01*
X186277142Y-122110476D01*
X186181904Y-122158095D01*
%TO.C,VR1*%
X167615476Y-132467380D02*
X167948809Y-133467380D01*
X168282142Y-132467380D01*
X169186904Y-133467380D02*
X168853571Y-132991190D01*
X168615476Y-133467380D02*
X168615476Y-132467380D01*
X168996428Y-132467380D01*
X169091666Y-132515000D01*
X169139285Y-132562619D01*
X169186904Y-132657857D01*
X169186904Y-132800714D01*
X169139285Y-132895952D01*
X169091666Y-132943571D01*
X168996428Y-132991190D01*
X168615476Y-132991190D01*
X170139285Y-133467380D02*
X169567857Y-133467380D01*
X169853571Y-133467380D02*
X169853571Y-132467380D01*
X169758333Y-132610238D01*
X169663095Y-132705476D01*
X169567857Y-132753095D01*
%TO.C,U9*%
X171958095Y-117922380D02*
X171958095Y-118731904D01*
X172005714Y-118827142D01*
X172053333Y-118874761D01*
X172148571Y-118922380D01*
X172339047Y-118922380D01*
X172434285Y-118874761D01*
X172481904Y-118827142D01*
X172529523Y-118731904D01*
X172529523Y-117922380D01*
X173053333Y-118922380D02*
X173243809Y-118922380D01*
X173339047Y-118874761D01*
X173386666Y-118827142D01*
X173481904Y-118684285D01*
X173529523Y-118493809D01*
X173529523Y-118112857D01*
X173481904Y-118017619D01*
X173434285Y-117970000D01*
X173339047Y-117922380D01*
X173148571Y-117922380D01*
X173053333Y-117970000D01*
X173005714Y-118017619D01*
X172958095Y-118112857D01*
X172958095Y-118350952D01*
X173005714Y-118446190D01*
X173053333Y-118493809D01*
X173148571Y-118541428D01*
X173339047Y-118541428D01*
X173434285Y-118493809D01*
X173481904Y-118446190D01*
X173529523Y-118350952D01*
%TO.C,U8*%
X156718095Y-121012380D02*
X156718095Y-121821904D01*
X156765714Y-121917142D01*
X156813333Y-121964761D01*
X156908571Y-122012380D01*
X157099047Y-122012380D01*
X157194285Y-121964761D01*
X157241904Y-121917142D01*
X157289523Y-121821904D01*
X157289523Y-121012380D01*
X157908571Y-121440952D02*
X157813333Y-121393333D01*
X157765714Y-121345714D01*
X157718095Y-121250476D01*
X157718095Y-121202857D01*
X157765714Y-121107619D01*
X157813333Y-121060000D01*
X157908571Y-121012380D01*
X158099047Y-121012380D01*
X158194285Y-121060000D01*
X158241904Y-121107619D01*
X158289523Y-121202857D01*
X158289523Y-121250476D01*
X158241904Y-121345714D01*
X158194285Y-121393333D01*
X158099047Y-121440952D01*
X157908571Y-121440952D01*
X157813333Y-121488571D01*
X157765714Y-121536190D01*
X157718095Y-121631428D01*
X157718095Y-121821904D01*
X157765714Y-121917142D01*
X157813333Y-121964761D01*
X157908571Y-122012380D01*
X158099047Y-122012380D01*
X158194285Y-121964761D01*
X158241904Y-121917142D01*
X158289523Y-121821904D01*
X158289523Y-121631428D01*
X158241904Y-121536190D01*
X158194285Y-121488571D01*
X158099047Y-121440952D01*
%TO.C,U7*%
X149098095Y-121012380D02*
X149098095Y-121821904D01*
X149145714Y-121917142D01*
X149193333Y-121964761D01*
X149288571Y-122012380D01*
X149479047Y-122012380D01*
X149574285Y-121964761D01*
X149621904Y-121917142D01*
X149669523Y-121821904D01*
X149669523Y-121012380D01*
X150050476Y-121012380D02*
X150717142Y-121012380D01*
X150288571Y-122012380D01*
%TO.C,U6*%
X141478095Y-121012380D02*
X141478095Y-121821904D01*
X141525714Y-121917142D01*
X141573333Y-121964761D01*
X141668571Y-122012380D01*
X141859047Y-122012380D01*
X141954285Y-121964761D01*
X142001904Y-121917142D01*
X142049523Y-121821904D01*
X142049523Y-121012380D01*
X142954285Y-121012380D02*
X142763809Y-121012380D01*
X142668571Y-121060000D01*
X142620952Y-121107619D01*
X142525714Y-121250476D01*
X142478095Y-121440952D01*
X142478095Y-121821904D01*
X142525714Y-121917142D01*
X142573333Y-121964761D01*
X142668571Y-122012380D01*
X142859047Y-122012380D01*
X142954285Y-121964761D01*
X143001904Y-121917142D01*
X143049523Y-121821904D01*
X143049523Y-121583809D01*
X143001904Y-121488571D01*
X142954285Y-121440952D01*
X142859047Y-121393333D01*
X142668571Y-121393333D01*
X142573333Y-121440952D01*
X142525714Y-121488571D01*
X142478095Y-121583809D01*
%TO.C,U5*%
X133858095Y-121012380D02*
X133858095Y-121821904D01*
X133905714Y-121917142D01*
X133953333Y-121964761D01*
X134048571Y-122012380D01*
X134239047Y-122012380D01*
X134334285Y-121964761D01*
X134381904Y-121917142D01*
X134429523Y-121821904D01*
X134429523Y-121012380D01*
X135381904Y-121012380D02*
X134905714Y-121012380D01*
X134858095Y-121488571D01*
X134905714Y-121440952D01*
X135000952Y-121393333D01*
X135239047Y-121393333D01*
X135334285Y-121440952D01*
X135381904Y-121488571D01*
X135429523Y-121583809D01*
X135429523Y-121821904D01*
X135381904Y-121917142D01*
X135334285Y-121964761D01*
X135239047Y-122012380D01*
X135000952Y-122012380D01*
X134905714Y-121964761D01*
X134858095Y-121917142D01*
%TO.C,U4*%
X126238095Y-121012380D02*
X126238095Y-121821904D01*
X126285714Y-121917142D01*
X126333333Y-121964761D01*
X126428571Y-122012380D01*
X126619047Y-122012380D01*
X126714285Y-121964761D01*
X126761904Y-121917142D01*
X126809523Y-121821904D01*
X126809523Y-121012380D01*
X127714285Y-121345714D02*
X127714285Y-122012380D01*
X127476190Y-120964761D02*
X127238095Y-121679047D01*
X127857142Y-121679047D01*
%TO.C,J1*%
D14*
X130606800Y-112061171D02*
X130606800Y-112496600D01*
X130577771Y-112583685D01*
X130519714Y-112641742D01*
X130432628Y-112670771D01*
X130374571Y-112670771D01*
X131216400Y-112670771D02*
X130868057Y-112670771D01*
X131042228Y-112670771D02*
X131042228Y-112061171D01*
X130984171Y-112148257D01*
X130926114Y-112206314D01*
X130868057Y-112235342D01*
X125526800Y-116422714D02*
X125497771Y-116451742D01*
X125410685Y-116480771D01*
X125352628Y-116480771D01*
X125265542Y-116451742D01*
X125207485Y-116393685D01*
X125178457Y-116335628D01*
X125149428Y-116219514D01*
X125149428Y-116132428D01*
X125178457Y-116016314D01*
X125207485Y-115958257D01*
X125265542Y-115900200D01*
X125352628Y-115871171D01*
X125410685Y-115871171D01*
X125497771Y-115900200D01*
X125526800Y-115929228D01*
X125875142Y-116480771D02*
X125817085Y-116451742D01*
X125788057Y-116422714D01*
X125759028Y-116364657D01*
X125759028Y-116190485D01*
X125788057Y-116132428D01*
X125817085Y-116103400D01*
X125875142Y-116074371D01*
X125962228Y-116074371D01*
X126020285Y-116103400D01*
X126049314Y-116132428D01*
X126078342Y-116190485D01*
X126078342Y-116364657D01*
X126049314Y-116422714D01*
X126020285Y-116451742D01*
X125962228Y-116480771D01*
X125875142Y-116480771D01*
X126339600Y-116074371D02*
X126339600Y-116480771D01*
X126339600Y-116132428D02*
X126368628Y-116103400D01*
X126426685Y-116074371D01*
X126513771Y-116074371D01*
X126571828Y-116103400D01*
X126600857Y-116161457D01*
X126600857Y-116480771D01*
X126891142Y-116074371D02*
X126891142Y-116480771D01*
X126891142Y-116132428D02*
X126920171Y-116103400D01*
X126978228Y-116074371D01*
X127065314Y-116074371D01*
X127123371Y-116103400D01*
X127152400Y-116161457D01*
X127152400Y-116480771D01*
X127297542Y-116538828D02*
X127762000Y-116538828D01*
X128023257Y-115871171D02*
X128081314Y-115871171D01*
X128139371Y-115900200D01*
X128168400Y-115929228D01*
X128197428Y-115987285D01*
X128226457Y-116103400D01*
X128226457Y-116248542D01*
X128197428Y-116364657D01*
X128168400Y-116422714D01*
X128139371Y-116451742D01*
X128081314Y-116480771D01*
X128023257Y-116480771D01*
X127965200Y-116451742D01*
X127936171Y-116422714D01*
X127907142Y-116364657D01*
X127878114Y-116248542D01*
X127878114Y-116103400D01*
X127907142Y-115987285D01*
X127936171Y-115929228D01*
X127965200Y-115900200D01*
X128023257Y-115871171D01*
X128807028Y-116480771D02*
X128458685Y-116480771D01*
X128632857Y-116480771D02*
X128632857Y-115871171D01*
X128574800Y-115958257D01*
X128516742Y-116016314D01*
X128458685Y-116045342D01*
X129010228Y-116480771D02*
X129329542Y-116074371D01*
X129010228Y-116074371D02*
X129329542Y-116480771D01*
X129677885Y-115871171D02*
X129735942Y-115871171D01*
X129794000Y-115900200D01*
X129823028Y-115929228D01*
X129852057Y-115987285D01*
X129881085Y-116103400D01*
X129881085Y-116248542D01*
X129852057Y-116364657D01*
X129823028Y-116422714D01*
X129794000Y-116451742D01*
X129735942Y-116480771D01*
X129677885Y-116480771D01*
X129619828Y-116451742D01*
X129590800Y-116422714D01*
X129561771Y-116364657D01*
X129532742Y-116248542D01*
X129532742Y-116103400D01*
X129561771Y-115987285D01*
X129590800Y-115929228D01*
X129619828Y-115900200D01*
X129677885Y-115871171D01*
X130171371Y-116480771D02*
X130287485Y-116480771D01*
X130345542Y-116451742D01*
X130374571Y-116422714D01*
X130432628Y-116335628D01*
X130461657Y-116219514D01*
X130461657Y-115987285D01*
X130432628Y-115929228D01*
X130403600Y-115900200D01*
X130345542Y-115871171D01*
X130229428Y-115871171D01*
X130171371Y-115900200D01*
X130142342Y-115929228D01*
X130113314Y-115987285D01*
X130113314Y-116132428D01*
X130142342Y-116190485D01*
X130171371Y-116219514D01*
X130229428Y-116248542D01*
X130345542Y-116248542D01*
X130403600Y-116219514D01*
X130432628Y-116190485D01*
X130461657Y-116132428D01*
X130577771Y-116538828D02*
X131042228Y-116538828D01*
X131187371Y-116480771D02*
X131187371Y-115871171D01*
X131390571Y-116306600D01*
X131593771Y-115871171D01*
X131593771Y-116480771D01*
X131971142Y-116480771D02*
X131913085Y-116451742D01*
X131884057Y-116422714D01*
X131855028Y-116364657D01*
X131855028Y-116190485D01*
X131884057Y-116132428D01*
X131913085Y-116103400D01*
X131971142Y-116074371D01*
X132058228Y-116074371D01*
X132116285Y-116103400D01*
X132145314Y-116132428D01*
X132174342Y-116190485D01*
X132174342Y-116364657D01*
X132145314Y-116422714D01*
X132116285Y-116451742D01*
X132058228Y-116480771D01*
X131971142Y-116480771D01*
X132696857Y-116074371D02*
X132696857Y-116480771D01*
X132435600Y-116074371D02*
X132435600Y-116393685D01*
X132464628Y-116451742D01*
X132522685Y-116480771D01*
X132609771Y-116480771D01*
X132667828Y-116451742D01*
X132696857Y-116422714D01*
X132987142Y-116074371D02*
X132987142Y-116480771D01*
X132987142Y-116132428D02*
X133016171Y-116103400D01*
X133074228Y-116074371D01*
X133161314Y-116074371D01*
X133219371Y-116103400D01*
X133248400Y-116161457D01*
X133248400Y-116480771D01*
X133451600Y-116074371D02*
X133683828Y-116074371D01*
X133538685Y-115871171D02*
X133538685Y-116393685D01*
X133567714Y-116451742D01*
X133625771Y-116480771D01*
X133683828Y-116480771D01*
X133887028Y-116480771D02*
X133887028Y-116074371D01*
X133887028Y-115871171D02*
X133858000Y-115900200D01*
X133887028Y-115929228D01*
X133916057Y-115900200D01*
X133887028Y-115871171D01*
X133887028Y-115929228D01*
X134177314Y-116074371D02*
X134177314Y-116480771D01*
X134177314Y-116132428D02*
X134206342Y-116103400D01*
X134264400Y-116074371D01*
X134351485Y-116074371D01*
X134409542Y-116103400D01*
X134438571Y-116161457D01*
X134438571Y-116480771D01*
X134990114Y-116074371D02*
X134990114Y-116567857D01*
X134961085Y-116625914D01*
X134932057Y-116654942D01*
X134874000Y-116683971D01*
X134786914Y-116683971D01*
X134728857Y-116654942D01*
X134990114Y-116451742D02*
X134932057Y-116480771D01*
X134815942Y-116480771D01*
X134757885Y-116451742D01*
X134728857Y-116422714D01*
X134699828Y-116364657D01*
X134699828Y-116190485D01*
X134728857Y-116132428D01*
X134757885Y-116103400D01*
X134815942Y-116074371D01*
X134932057Y-116074371D01*
X134990114Y-116103400D01*
X135280400Y-116480771D02*
X135280400Y-115871171D01*
X135512628Y-115871171D01*
X135570685Y-115900200D01*
X135599714Y-115929228D01*
X135628742Y-115987285D01*
X135628742Y-116074371D01*
X135599714Y-116132428D01*
X135570685Y-116161457D01*
X135512628Y-116190485D01*
X135280400Y-116190485D01*
X135890000Y-116480771D02*
X135890000Y-116074371D01*
X135890000Y-115871171D02*
X135860971Y-115900200D01*
X135890000Y-115929228D01*
X135919028Y-115900200D01*
X135890000Y-115871171D01*
X135890000Y-115929228D01*
X136180285Y-116074371D02*
X136180285Y-116480771D01*
X136180285Y-116132428D02*
X136209314Y-116103400D01*
X136267371Y-116074371D01*
X136354457Y-116074371D01*
X136412514Y-116103400D01*
X136441542Y-116161457D01*
X136441542Y-116480771D01*
%TO.C,D7*%
X157755771Y-132529942D02*
X157146171Y-132529942D01*
X157146171Y-132384800D01*
X157175200Y-132297714D01*
X157233257Y-132239657D01*
X157291314Y-132210628D01*
X157407428Y-132181600D01*
X157494514Y-132181600D01*
X157610628Y-132210628D01*
X157668685Y-132239657D01*
X157726742Y-132297714D01*
X157755771Y-132384800D01*
X157755771Y-132529942D01*
X157146171Y-131978400D02*
X157146171Y-131572000D01*
X157755771Y-131833257D01*
X155215771Y-134768771D02*
X155215771Y-135059057D01*
X154606171Y-135059057D01*
X154896457Y-134565571D02*
X154896457Y-134362371D01*
X155215771Y-134275285D02*
X155215771Y-134565571D01*
X154606171Y-134565571D01*
X154606171Y-134275285D01*
X155215771Y-134014028D02*
X154606171Y-134014028D01*
X154606171Y-133868885D01*
X154635200Y-133781800D01*
X154693257Y-133723742D01*
X154751314Y-133694714D01*
X154867428Y-133665685D01*
X154954514Y-133665685D01*
X155070628Y-133694714D01*
X155128685Y-133723742D01*
X155186742Y-133781800D01*
X155215771Y-133868885D01*
X155215771Y-134014028D01*
X154983542Y-133404428D02*
X154983542Y-132939971D01*
X155215771Y-132301342D02*
X154925485Y-132504542D01*
X155215771Y-132649685D02*
X154606171Y-132649685D01*
X154606171Y-132417457D01*
X154635200Y-132359400D01*
X154664228Y-132330371D01*
X154722285Y-132301342D01*
X154809371Y-132301342D01*
X154867428Y-132330371D01*
X154896457Y-132359400D01*
X154925485Y-132417457D01*
X154925485Y-132649685D01*
X154896457Y-132040085D02*
X154896457Y-131836885D01*
X155215771Y-131749800D02*
X155215771Y-132040085D01*
X154606171Y-132040085D01*
X154606171Y-131749800D01*
X155215771Y-131488542D02*
X154606171Y-131488542D01*
X154606171Y-131343400D01*
X154635200Y-131256314D01*
X154693257Y-131198257D01*
X154751314Y-131169228D01*
X154867428Y-131140200D01*
X154954514Y-131140200D01*
X155070628Y-131169228D01*
X155128685Y-131198257D01*
X155186742Y-131256314D01*
X155215771Y-131343400D01*
X155215771Y-131488542D01*
X155215771Y-130559628D02*
X155215771Y-130907971D01*
X155215771Y-130733800D02*
X154606171Y-130733800D01*
X154693257Y-130791857D01*
X154751314Y-130849914D01*
X154780342Y-130907971D01*
X154664228Y-130327400D02*
X154635200Y-130298371D01*
X154606171Y-130240314D01*
X154606171Y-130095171D01*
X154635200Y-130037114D01*
X154664228Y-130008085D01*
X154722285Y-129979057D01*
X154780342Y-129979057D01*
X154867428Y-130008085D01*
X155215771Y-130356428D01*
X155215771Y-129979057D01*
X154606171Y-129601685D02*
X154606171Y-129543628D01*
X154635200Y-129485571D01*
X154664228Y-129456542D01*
X154722285Y-129427514D01*
X154838400Y-129398485D01*
X154983542Y-129398485D01*
X155099657Y-129427514D01*
X155157714Y-129456542D01*
X155186742Y-129485571D01*
X155215771Y-129543628D01*
X155215771Y-129601685D01*
X155186742Y-129659742D01*
X155157714Y-129688771D01*
X155099657Y-129717800D01*
X154983542Y-129746828D01*
X154838400Y-129746828D01*
X154722285Y-129717800D01*
X154664228Y-129688771D01*
X154635200Y-129659742D01*
X154606171Y-129601685D01*
X154606171Y-128875971D02*
X154606171Y-128992085D01*
X154635200Y-129050142D01*
X154664228Y-129079171D01*
X154751314Y-129137228D01*
X154867428Y-129166257D01*
X155099657Y-129166257D01*
X155157714Y-129137228D01*
X155186742Y-129108200D01*
X155215771Y-129050142D01*
X155215771Y-128934028D01*
X155186742Y-128875971D01*
X155157714Y-128846942D01*
X155099657Y-128817914D01*
X154954514Y-128817914D01*
X154896457Y-128846942D01*
X154867428Y-128875971D01*
X154838400Y-128934028D01*
X154838400Y-129050142D01*
X154867428Y-129108200D01*
X154896457Y-129137228D01*
X154954514Y-129166257D01*
%TO.C,D6*%
X150135771Y-132529942D02*
X149526171Y-132529942D01*
X149526171Y-132384800D01*
X149555200Y-132297714D01*
X149613257Y-132239657D01*
X149671314Y-132210628D01*
X149787428Y-132181600D01*
X149874514Y-132181600D01*
X149990628Y-132210628D01*
X150048685Y-132239657D01*
X150106742Y-132297714D01*
X150135771Y-132384800D01*
X150135771Y-132529942D01*
X149526171Y-131659085D02*
X149526171Y-131775200D01*
X149555200Y-131833257D01*
X149584228Y-131862285D01*
X149671314Y-131920342D01*
X149787428Y-131949371D01*
X150019657Y-131949371D01*
X150077714Y-131920342D01*
X150106742Y-131891314D01*
X150135771Y-131833257D01*
X150135771Y-131717142D01*
X150106742Y-131659085D01*
X150077714Y-131630057D01*
X150019657Y-131601028D01*
X149874514Y-131601028D01*
X149816457Y-131630057D01*
X149787428Y-131659085D01*
X149758400Y-131717142D01*
X149758400Y-131833257D01*
X149787428Y-131891314D01*
X149816457Y-131920342D01*
X149874514Y-131949371D01*
X147595771Y-135581571D02*
X147595771Y-135871857D01*
X146986171Y-135871857D01*
X147276457Y-135378371D02*
X147276457Y-135175171D01*
X147595771Y-135088085D02*
X147595771Y-135378371D01*
X146986171Y-135378371D01*
X146986171Y-135088085D01*
X147595771Y-134826828D02*
X146986171Y-134826828D01*
X146986171Y-134681685D01*
X147015200Y-134594600D01*
X147073257Y-134536542D01*
X147131314Y-134507514D01*
X147247428Y-134478485D01*
X147334514Y-134478485D01*
X147450628Y-134507514D01*
X147508685Y-134536542D01*
X147566742Y-134594600D01*
X147595771Y-134681685D01*
X147595771Y-134826828D01*
X147363542Y-134217228D02*
X147363542Y-133752771D01*
X147305485Y-133346371D02*
X147595771Y-133346371D01*
X146986171Y-133549571D02*
X147305485Y-133346371D01*
X146986171Y-133143171D01*
X147276457Y-132939971D02*
X147276457Y-132736771D01*
X147595771Y-132649685D02*
X147595771Y-132939971D01*
X146986171Y-132939971D01*
X146986171Y-132649685D01*
X147595771Y-132098142D02*
X147595771Y-132388428D01*
X146986171Y-132388428D01*
X147595771Y-131604657D02*
X147595771Y-131894942D01*
X146986171Y-131894942D01*
X146986171Y-131285342D02*
X146986171Y-131169228D01*
X147015200Y-131111171D01*
X147073257Y-131053114D01*
X147189371Y-131024085D01*
X147392571Y-131024085D01*
X147508685Y-131053114D01*
X147566742Y-131111171D01*
X147595771Y-131169228D01*
X147595771Y-131285342D01*
X147566742Y-131343400D01*
X147508685Y-131401457D01*
X147392571Y-131430485D01*
X147189371Y-131430485D01*
X147073257Y-131401457D01*
X147015200Y-131343400D01*
X146986171Y-131285342D01*
X146986171Y-130820885D02*
X147595771Y-130675742D01*
X147160342Y-130559628D01*
X147595771Y-130443514D01*
X146986171Y-130298371D01*
X147595771Y-129746828D02*
X147595771Y-130095171D01*
X147595771Y-129921000D02*
X146986171Y-129921000D01*
X147073257Y-129979057D01*
X147131314Y-130037114D01*
X147160342Y-130095171D01*
X147044228Y-129514600D02*
X147015200Y-129485571D01*
X146986171Y-129427514D01*
X146986171Y-129282371D01*
X147015200Y-129224314D01*
X147044228Y-129195285D01*
X147102285Y-129166257D01*
X147160342Y-129166257D01*
X147247428Y-129195285D01*
X147595771Y-129543628D01*
X147595771Y-129166257D01*
X146986171Y-128788885D02*
X146986171Y-128730828D01*
X147015200Y-128672771D01*
X147044228Y-128643742D01*
X147102285Y-128614714D01*
X147218400Y-128585685D01*
X147363542Y-128585685D01*
X147479657Y-128614714D01*
X147537714Y-128643742D01*
X147566742Y-128672771D01*
X147595771Y-128730828D01*
X147595771Y-128788885D01*
X147566742Y-128846942D01*
X147537714Y-128875971D01*
X147479657Y-128905000D01*
X147363542Y-128934028D01*
X147218400Y-128934028D01*
X147102285Y-128905000D01*
X147044228Y-128875971D01*
X147015200Y-128846942D01*
X146986171Y-128788885D01*
X146986171Y-128063171D02*
X146986171Y-128179285D01*
X147015200Y-128237342D01*
X147044228Y-128266371D01*
X147131314Y-128324428D01*
X147247428Y-128353457D01*
X147479657Y-128353457D01*
X147537714Y-128324428D01*
X147566742Y-128295400D01*
X147595771Y-128237342D01*
X147595771Y-128121228D01*
X147566742Y-128063171D01*
X147537714Y-128034142D01*
X147479657Y-128005114D01*
X147334514Y-128005114D01*
X147276457Y-128034142D01*
X147247428Y-128063171D01*
X147218400Y-128121228D01*
X147218400Y-128237342D01*
X147247428Y-128295400D01*
X147276457Y-128324428D01*
X147334514Y-128353457D01*
%TO.C,D5*%
X142515771Y-132529942D02*
X141906171Y-132529942D01*
X141906171Y-132384800D01*
X141935200Y-132297714D01*
X141993257Y-132239657D01*
X142051314Y-132210628D01*
X142167428Y-132181600D01*
X142254514Y-132181600D01*
X142370628Y-132210628D01*
X142428685Y-132239657D01*
X142486742Y-132297714D01*
X142515771Y-132384800D01*
X142515771Y-132529942D01*
X141906171Y-131630057D02*
X141906171Y-131920342D01*
X142196457Y-131949371D01*
X142167428Y-131920342D01*
X142138400Y-131862285D01*
X142138400Y-131717142D01*
X142167428Y-131659085D01*
X142196457Y-131630057D01*
X142254514Y-131601028D01*
X142399657Y-131601028D01*
X142457714Y-131630057D01*
X142486742Y-131659085D01*
X142515771Y-131717142D01*
X142515771Y-131862285D01*
X142486742Y-131920342D01*
X142457714Y-131949371D01*
X139975771Y-135363857D02*
X139975771Y-135654142D01*
X139366171Y-135654142D01*
X139656457Y-135160657D02*
X139656457Y-134957457D01*
X139975771Y-134870371D02*
X139975771Y-135160657D01*
X139366171Y-135160657D01*
X139366171Y-134870371D01*
X139975771Y-134609114D02*
X139366171Y-134609114D01*
X139366171Y-134463971D01*
X139395200Y-134376885D01*
X139453257Y-134318828D01*
X139511314Y-134289800D01*
X139627428Y-134260771D01*
X139714514Y-134260771D01*
X139830628Y-134289800D01*
X139888685Y-134318828D01*
X139946742Y-134376885D01*
X139975771Y-134463971D01*
X139975771Y-134609114D01*
X139743542Y-133999514D02*
X139743542Y-133535057D01*
X139395200Y-132925457D02*
X139366171Y-132983514D01*
X139366171Y-133070600D01*
X139395200Y-133157685D01*
X139453257Y-133215742D01*
X139511314Y-133244771D01*
X139627428Y-133273800D01*
X139714514Y-133273800D01*
X139830628Y-133244771D01*
X139888685Y-133215742D01*
X139946742Y-133157685D01*
X139975771Y-133070600D01*
X139975771Y-133012542D01*
X139946742Y-132925457D01*
X139917714Y-132896428D01*
X139714514Y-132896428D01*
X139714514Y-133012542D01*
X139975771Y-132286828D02*
X139685485Y-132490028D01*
X139975771Y-132635171D02*
X139366171Y-132635171D01*
X139366171Y-132402942D01*
X139395200Y-132344885D01*
X139424228Y-132315857D01*
X139482285Y-132286828D01*
X139569371Y-132286828D01*
X139627428Y-132315857D01*
X139656457Y-132344885D01*
X139685485Y-132402942D01*
X139685485Y-132635171D01*
X139656457Y-132025571D02*
X139656457Y-131822371D01*
X139975771Y-131735285D02*
X139975771Y-132025571D01*
X139366171Y-132025571D01*
X139366171Y-131735285D01*
X139656457Y-131474028D02*
X139656457Y-131270828D01*
X139975771Y-131183742D02*
X139975771Y-131474028D01*
X139366171Y-131474028D01*
X139366171Y-131183742D01*
X139975771Y-130922485D02*
X139366171Y-130922485D01*
X139975771Y-130574142D01*
X139366171Y-130574142D01*
X139975771Y-129964542D02*
X139975771Y-130312885D01*
X139975771Y-130138714D02*
X139366171Y-130138714D01*
X139453257Y-130196771D01*
X139511314Y-130254828D01*
X139540342Y-130312885D01*
X139424228Y-129732314D02*
X139395200Y-129703285D01*
X139366171Y-129645228D01*
X139366171Y-129500085D01*
X139395200Y-129442028D01*
X139424228Y-129413000D01*
X139482285Y-129383971D01*
X139540342Y-129383971D01*
X139627428Y-129413000D01*
X139975771Y-129761342D01*
X139975771Y-129383971D01*
X139366171Y-129006600D02*
X139366171Y-128948542D01*
X139395200Y-128890485D01*
X139424228Y-128861457D01*
X139482285Y-128832428D01*
X139598400Y-128803400D01*
X139743542Y-128803400D01*
X139859657Y-128832428D01*
X139917714Y-128861457D01*
X139946742Y-128890485D01*
X139975771Y-128948542D01*
X139975771Y-129006600D01*
X139946742Y-129064657D01*
X139917714Y-129093685D01*
X139859657Y-129122714D01*
X139743542Y-129151742D01*
X139598400Y-129151742D01*
X139482285Y-129122714D01*
X139424228Y-129093685D01*
X139395200Y-129064657D01*
X139366171Y-129006600D01*
X139366171Y-128280885D02*
X139366171Y-128397000D01*
X139395200Y-128455057D01*
X139424228Y-128484085D01*
X139511314Y-128542142D01*
X139627428Y-128571171D01*
X139859657Y-128571171D01*
X139917714Y-128542142D01*
X139946742Y-128513114D01*
X139975771Y-128455057D01*
X139975771Y-128338942D01*
X139946742Y-128280885D01*
X139917714Y-128251857D01*
X139859657Y-128222828D01*
X139714514Y-128222828D01*
X139656457Y-128251857D01*
X139627428Y-128280885D01*
X139598400Y-128338942D01*
X139598400Y-128455057D01*
X139627428Y-128513114D01*
X139656457Y-128542142D01*
X139714514Y-128571171D01*
%TO.C,D4*%
X134895771Y-132529942D02*
X134286171Y-132529942D01*
X134286171Y-132384800D01*
X134315200Y-132297714D01*
X134373257Y-132239657D01*
X134431314Y-132210628D01*
X134547428Y-132181600D01*
X134634514Y-132181600D01*
X134750628Y-132210628D01*
X134808685Y-132239657D01*
X134866742Y-132297714D01*
X134895771Y-132384800D01*
X134895771Y-132529942D01*
X134489371Y-131659085D02*
X134895771Y-131659085D01*
X134257142Y-131804228D02*
X134692571Y-131949371D01*
X134692571Y-131572000D01*
X132355771Y-135581571D02*
X132355771Y-135871857D01*
X131746171Y-135871857D01*
X132036457Y-135378371D02*
X132036457Y-135175171D01*
X132355771Y-135088085D02*
X132355771Y-135378371D01*
X131746171Y-135378371D01*
X131746171Y-135088085D01*
X132355771Y-134826828D02*
X131746171Y-134826828D01*
X131746171Y-134681685D01*
X131775200Y-134594600D01*
X131833257Y-134536542D01*
X131891314Y-134507514D01*
X132007428Y-134478485D01*
X132094514Y-134478485D01*
X132210628Y-134507514D01*
X132268685Y-134536542D01*
X132326742Y-134594600D01*
X132355771Y-134681685D01*
X132355771Y-134826828D01*
X132123542Y-134217228D02*
X132123542Y-133752771D01*
X132065485Y-133346371D02*
X132355771Y-133346371D01*
X131746171Y-133549571D02*
X132065485Y-133346371D01*
X131746171Y-133143171D01*
X132036457Y-132939971D02*
X132036457Y-132736771D01*
X132355771Y-132649685D02*
X132355771Y-132939971D01*
X131746171Y-132939971D01*
X131746171Y-132649685D01*
X132355771Y-132098142D02*
X132355771Y-132388428D01*
X131746171Y-132388428D01*
X132355771Y-131604657D02*
X132355771Y-131894942D01*
X131746171Y-131894942D01*
X131746171Y-131285342D02*
X131746171Y-131169228D01*
X131775200Y-131111171D01*
X131833257Y-131053114D01*
X131949371Y-131024085D01*
X132152571Y-131024085D01*
X132268685Y-131053114D01*
X132326742Y-131111171D01*
X132355771Y-131169228D01*
X132355771Y-131285342D01*
X132326742Y-131343400D01*
X132268685Y-131401457D01*
X132152571Y-131430485D01*
X131949371Y-131430485D01*
X131833257Y-131401457D01*
X131775200Y-131343400D01*
X131746171Y-131285342D01*
X131746171Y-130820885D02*
X132355771Y-130675742D01*
X131920342Y-130559628D01*
X132355771Y-130443514D01*
X131746171Y-130298371D01*
X132355771Y-129746828D02*
X132355771Y-130095171D01*
X132355771Y-129921000D02*
X131746171Y-129921000D01*
X131833257Y-129979057D01*
X131891314Y-130037114D01*
X131920342Y-130095171D01*
X131804228Y-129514600D02*
X131775200Y-129485571D01*
X131746171Y-129427514D01*
X131746171Y-129282371D01*
X131775200Y-129224314D01*
X131804228Y-129195285D01*
X131862285Y-129166257D01*
X131920342Y-129166257D01*
X132007428Y-129195285D01*
X132355771Y-129543628D01*
X132355771Y-129166257D01*
X131746171Y-128788885D02*
X131746171Y-128730828D01*
X131775200Y-128672771D01*
X131804228Y-128643742D01*
X131862285Y-128614714D01*
X131978400Y-128585685D01*
X132123542Y-128585685D01*
X132239657Y-128614714D01*
X132297714Y-128643742D01*
X132326742Y-128672771D01*
X132355771Y-128730828D01*
X132355771Y-128788885D01*
X132326742Y-128846942D01*
X132297714Y-128875971D01*
X132239657Y-128905000D01*
X132123542Y-128934028D01*
X131978400Y-128934028D01*
X131862285Y-128905000D01*
X131804228Y-128875971D01*
X131775200Y-128846942D01*
X131746171Y-128788885D01*
X131746171Y-128063171D02*
X131746171Y-128179285D01*
X131775200Y-128237342D01*
X131804228Y-128266371D01*
X131891314Y-128324428D01*
X132007428Y-128353457D01*
X132239657Y-128353457D01*
X132297714Y-128324428D01*
X132326742Y-128295400D01*
X132355771Y-128237342D01*
X132355771Y-128121228D01*
X132326742Y-128063171D01*
X132297714Y-128034142D01*
X132239657Y-128005114D01*
X132094514Y-128005114D01*
X132036457Y-128034142D01*
X132007428Y-128063171D01*
X131978400Y-128121228D01*
X131978400Y-128237342D01*
X132007428Y-128295400D01*
X132036457Y-128324428D01*
X132094514Y-128353457D01*
%TO.C,D3*%
X127275771Y-132529942D02*
X126666171Y-132529942D01*
X126666171Y-132384800D01*
X126695200Y-132297714D01*
X126753257Y-132239657D01*
X126811314Y-132210628D01*
X126927428Y-132181600D01*
X127014514Y-132181600D01*
X127130628Y-132210628D01*
X127188685Y-132239657D01*
X127246742Y-132297714D01*
X127275771Y-132384800D01*
X127275771Y-132529942D01*
X126666171Y-131978400D02*
X126666171Y-131601028D01*
X126898400Y-131804228D01*
X126898400Y-131717142D01*
X126927428Y-131659085D01*
X126956457Y-131630057D01*
X127014514Y-131601028D01*
X127159657Y-131601028D01*
X127217714Y-131630057D01*
X127246742Y-131659085D01*
X127275771Y-131717142D01*
X127275771Y-131891314D01*
X127246742Y-131949371D01*
X127217714Y-131978400D01*
X124735771Y-134768771D02*
X124735771Y-135059057D01*
X124126171Y-135059057D01*
X124416457Y-134565571D02*
X124416457Y-134362371D01*
X124735771Y-134275285D02*
X124735771Y-134565571D01*
X124126171Y-134565571D01*
X124126171Y-134275285D01*
X124735771Y-134014028D02*
X124126171Y-134014028D01*
X124126171Y-133868885D01*
X124155200Y-133781800D01*
X124213257Y-133723742D01*
X124271314Y-133694714D01*
X124387428Y-133665685D01*
X124474514Y-133665685D01*
X124590628Y-133694714D01*
X124648685Y-133723742D01*
X124706742Y-133781800D01*
X124735771Y-133868885D01*
X124735771Y-134014028D01*
X124503542Y-133404428D02*
X124503542Y-132939971D01*
X124735771Y-132301342D02*
X124445485Y-132504542D01*
X124735771Y-132649685D02*
X124126171Y-132649685D01*
X124126171Y-132417457D01*
X124155200Y-132359400D01*
X124184228Y-132330371D01*
X124242285Y-132301342D01*
X124329371Y-132301342D01*
X124387428Y-132330371D01*
X124416457Y-132359400D01*
X124445485Y-132417457D01*
X124445485Y-132649685D01*
X124416457Y-132040085D02*
X124416457Y-131836885D01*
X124735771Y-131749800D02*
X124735771Y-132040085D01*
X124126171Y-132040085D01*
X124126171Y-131749800D01*
X124735771Y-131488542D02*
X124126171Y-131488542D01*
X124126171Y-131343400D01*
X124155200Y-131256314D01*
X124213257Y-131198257D01*
X124271314Y-131169228D01*
X124387428Y-131140200D01*
X124474514Y-131140200D01*
X124590628Y-131169228D01*
X124648685Y-131198257D01*
X124706742Y-131256314D01*
X124735771Y-131343400D01*
X124735771Y-131488542D01*
X124735771Y-130559628D02*
X124735771Y-130907971D01*
X124735771Y-130733800D02*
X124126171Y-130733800D01*
X124213257Y-130791857D01*
X124271314Y-130849914D01*
X124300342Y-130907971D01*
X124184228Y-130327400D02*
X124155200Y-130298371D01*
X124126171Y-130240314D01*
X124126171Y-130095171D01*
X124155200Y-130037114D01*
X124184228Y-130008085D01*
X124242285Y-129979057D01*
X124300342Y-129979057D01*
X124387428Y-130008085D01*
X124735771Y-130356428D01*
X124735771Y-129979057D01*
X124126171Y-129601685D02*
X124126171Y-129543628D01*
X124155200Y-129485571D01*
X124184228Y-129456542D01*
X124242285Y-129427514D01*
X124358400Y-129398485D01*
X124503542Y-129398485D01*
X124619657Y-129427514D01*
X124677714Y-129456542D01*
X124706742Y-129485571D01*
X124735771Y-129543628D01*
X124735771Y-129601685D01*
X124706742Y-129659742D01*
X124677714Y-129688771D01*
X124619657Y-129717800D01*
X124503542Y-129746828D01*
X124358400Y-129746828D01*
X124242285Y-129717800D01*
X124184228Y-129688771D01*
X124155200Y-129659742D01*
X124126171Y-129601685D01*
X124126171Y-128875971D02*
X124126171Y-128992085D01*
X124155200Y-129050142D01*
X124184228Y-129079171D01*
X124271314Y-129137228D01*
X124387428Y-129166257D01*
X124619657Y-129166257D01*
X124677714Y-129137228D01*
X124706742Y-129108200D01*
X124735771Y-129050142D01*
X124735771Y-128934028D01*
X124706742Y-128875971D01*
X124677714Y-128846942D01*
X124619657Y-128817914D01*
X124474514Y-128817914D01*
X124416457Y-128846942D01*
X124387428Y-128875971D01*
X124358400Y-128934028D01*
X124358400Y-129050142D01*
X124387428Y-129108200D01*
X124416457Y-129137228D01*
X124474514Y-129166257D01*
%TD*%
M02*
