%TF.GenerationSoftware,KiCad,Pcbnew,5.1.10*%
%TF.CreationDate,2021-08-10T02:55:14-04:00*%
%TF.ProjectId,KSG Display Board,4b534720-4469-4737-906c-617920426f61,rev?*%
%TF.SameCoordinates,Original*%
%TF.FileFunction,Paste,Top*%
%TF.FilePolarity,Positive*%
%FSLAX46Y46*%
G04 Gerber Fmt 4.6, Leading zero omitted, Abs format (unit mm)*
G04 Created by KiCad (PCBNEW 5.1.10) date 2021-08-10 02:55:14*
%MOMM*%
%LPD*%
G01*
G04 APERTURE LIST*
%ADD10R,1.798320X1.597660*%
%ADD11R,1.399540X1.198880*%
%ADD12R,1.560000X0.650000*%
G04 APERTURE END LIST*
D10*
%TO.C,R3*%
X176530000Y-121790460D03*
X176530000Y-124589540D03*
%TD*%
%TO.C,R2*%
X161290000Y-138559540D03*
X161290000Y-135760460D03*
%TD*%
%TO.C,R1*%
X119380000Y-138559540D03*
X119380000Y-135760460D03*
%TD*%
D11*
%TO.C,D2*%
X114300000Y-133578600D03*
X114300000Y-130581400D03*
%TD*%
%TO.C,D1*%
X106680000Y-133578600D03*
X106680000Y-130581400D03*
%TD*%
D12*
%TO.C,U2*%
X116920000Y-123510000D03*
X116920000Y-125410000D03*
X114220000Y-125410000D03*
X114220000Y-124460000D03*
X114220000Y-123510000D03*
%TD*%
%TO.C,U1*%
X109300000Y-123510000D03*
X109300000Y-125410000D03*
X106600000Y-125410000D03*
X106600000Y-124460000D03*
X106600000Y-123510000D03*
%TD*%
%TO.C,U9*%
X171370000Y-116520000D03*
X171370000Y-114620000D03*
X174070000Y-114620000D03*
X174070000Y-115570000D03*
X174070000Y-116520000D03*
%TD*%
%TO.C,U8*%
X158830000Y-123510000D03*
X158830000Y-125410000D03*
X156130000Y-125410000D03*
X156130000Y-124460000D03*
X156130000Y-123510000D03*
%TD*%
%TO.C,U7*%
X151210000Y-123510000D03*
X151210000Y-125410000D03*
X148510000Y-125410000D03*
X148510000Y-124460000D03*
X148510000Y-123510000D03*
%TD*%
%TO.C,U6*%
X143590000Y-123510000D03*
X143590000Y-125410000D03*
X140890000Y-125410000D03*
X140890000Y-124460000D03*
X140890000Y-123510000D03*
%TD*%
%TO.C,U5*%
X135970000Y-123510000D03*
X135970000Y-125410000D03*
X133270000Y-125410000D03*
X133270000Y-124460000D03*
X133270000Y-123510000D03*
%TD*%
%TO.C,U4*%
X128350000Y-123510000D03*
X128350000Y-125410000D03*
X125650000Y-125410000D03*
X125650000Y-124460000D03*
X125650000Y-123510000D03*
%TD*%
D11*
%TO.C,D7*%
X156210000Y-133578600D03*
X156210000Y-130581400D03*
%TD*%
%TO.C,D6*%
X148590000Y-133578600D03*
X148590000Y-130581400D03*
%TD*%
%TO.C,D5*%
X140970000Y-133578600D03*
X140970000Y-130581400D03*
%TD*%
%TO.C,D4*%
X133350000Y-133578600D03*
X133350000Y-130581400D03*
%TD*%
%TO.C,D3*%
X125730000Y-133578600D03*
X125730000Y-130581400D03*
%TD*%
M02*
