M48
; DRILL file {KiCad 5.1.10} date Tue Aug 10 02:46:45 2021
; FORMAT={-:-/ absolute / inch / decimal}
; #@! TF.CreationDate,2021-08-10T02:46:45-04:00
; #@! TF.GenerationSoftware,Kicad,Pcbnew,5.1.10
; #@! TF.FileFunction,Plated,1,2,PTH
FMAT,2
INCH
T1C0.0157
T2C0.0300
T3C0.0315
T4C0.0400
T5C0.0520
%
G90
G05
T1
X4.2052Y-4.9948
X4.5052Y-4.9948
X4.5948Y-4.8052
X4.7949Y-5.4551
X5.0531Y-4.8031
X5.3531Y-4.8031
X5.6531Y-4.8031
X5.9531Y-4.8031
X6.2531Y-4.8031
X6.4449Y-5.4551
X6.5Y-4.75
T2
X7.15Y-4.9
X7.15Y-5.1
X7.45Y-4.9
X7.45Y-5.1
T3
X6.55Y-5.0
X6.65Y-4.9
X6.65Y-5.1
T4
X5.15Y-4.5
X5.25Y-4.5
X5.35Y-4.5
X5.45Y-4.5
X5.55Y-4.5
X5.65Y-4.5
X5.75Y-4.5
X5.85Y-4.5
X5.95Y-4.5
T5
X3.8Y-4.75
X3.8Y-4.9469
T2
G00X4.185Y-4.5
M15
G01X4.115Y-4.5
M16
G05
G00X4.3661Y-4.5
M15
G01X4.2961Y-4.5
M16
G05
T0
M30
